<svg width="1080" height="500" viewBox="0 0 1080 500" fill="none" xmlns="http://www.w3.org/2000/svg">
<g clip-path="url(#clip0)">
<path d="M840.461 427.962C840.461 404.317 839.328 125.015 839.328 98.9741H665.145C665.145 100.868 665.232 339.161 665.313 427.478" fill="white"/>
<path d="M605.252 426.724C605.252 402.928 604.726 183.473 604.726 157.265H420.877C420.877 165.403 421.186 425.356 421.186 428.045" fill="white"/>
<path d="M250.523 426.394C250.538 435.246 250.373 126.594 250.362 117.43H78.6025C78.6025 118.874 78.6569 369.484 78.7178 426.58" fill="white"/>
<path d="M1050.59 426.312C1050.59 401.098 1049.55 187.381 1049.55 159.609H877.887C877.887 163.416 878.167 380.503 878.167 426.722" fill="white"/>
<path d="M492.481 228.376C492.481 222.823 492.383 214.495 492.383 211.068H295.613C295.613 215.964 295.713 224.998 295.713 228.376" fill="white"/>
<path d="M496.832 228.376C496.832 222.598 496.738 216.837 496.734 211.068C496.717 209.978 496.253 208.938 495.441 208.167C494.628 207.397 493.531 206.957 492.383 206.941H295.613C294.464 206.956 293.367 207.395 292.554 208.166C291.741 208.937 291.278 209.978 291.262 211.068C291.262 216.845 291.356 222.606 291.362 228.376C291.362 233.687 300.064 233.698 300.064 228.376C300.064 222.598 299.969 216.837 299.964 211.068L295.613 215.195H492.383L488.032 211.068C488.032 216.845 488.125 222.606 488.13 228.376C488.13 233.687 496.832 233.698 496.832 228.376V228.376Z" fill="#211715"/>
<path d="M506.189 428.049C506.189 406.405 505.151 252.213 505.151 228.376H284.055C284.055 231.644 284.335 388.73 284.335 428.4" fill="white"/>
<path d="M823.524 96.3101C823.524 90.7573 823.511 82.2641 823.511 78.8387H680.321C680.321 83.7353 680.665 92.9714 680.665 96.3514" fill="white"/>
<path d="M827.876 96.3101C827.876 90.487 827.872 84.6633 827.863 78.8388C827.847 77.7489 827.384 76.7079 826.571 75.9371C825.758 75.1664 824.661 74.7268 823.512 74.7119H680.322C679.173 74.7273 678.076 75.1671 677.263 75.9377C676.451 76.7083 675.987 77.7491 675.971 78.8388C675.986 84.6763 676.293 90.5118 676.314 96.3514C676.332 101.661 685.034 101.671 685.017 96.3514C684.995 90.5118 684.688 84.6763 684.673 78.8388L680.322 82.9657H823.512L819.161 78.8388C819.161 84.6619 819.165 90.4857 819.174 96.3101C819.174 101.621 827.876 101.63 827.876 96.3101Z" fill="#211715"/>
<path d="M840.446 96.892C826.305 96.892 689.596 96.9374 665.994 96.9374V121.286H840.472C840.468 117.223 840.446 98.0434 840.446 96.892Z" fill="#94D1E6"/>
<path d="M280.132 266.366V336.076C280.132 341.388 288.835 341.396 288.835 336.076V266.366C288.835 261.055 280.132 261.047 280.132 266.366Z" fill="#211715"/>
<path d="M78.8286 262.539C78.8286 260.96 78.8286 119.297 78.8286 117.43H103.495C103.495 119.297 103.495 260.96 103.495 262.539" fill="#94D1E6"/>
<path d="M99.1465 117.43V249.869C99.1465 255.18 107.849 255.189 107.849 249.869V117.43C107.849 112.12 99.1465 112.11 99.1465 117.43Z" fill="#211715"/>
<path d="M128.164 262.539V117.43H152.832V262.539" fill="#94D1E6"/>
<path d="M123.812 117.43V249.869C123.812 255.18 132.515 255.189 132.515 249.869V117.43C132.515 112.12 123.812 112.11 123.812 117.43Z" fill="#211715"/>
<path d="M148.481 117.43V249.869C148.481 255.18 157.183 255.189 157.183 249.869V117.43C157.183 112.12 148.481 112.11 148.481 117.43Z" fill="#211715"/>
<path d="M246.172 391.299C246.172 391.367 246.172 391.439 246.172 391.505C246.607 396.74 254.789 396.885 254.874 391.505C255.015 382.657 254.874 373.794 254.874 364.946C254.864 343.651 254.852 322.357 254.837 301.064L254.791 223.405C254.778 200.502 254.765 177.598 254.75 154.692C254.741 142.633 254.733 130.575 254.726 118.519V117.417C254.71 116.328 254.246 115.287 253.434 114.516C252.621 113.746 251.524 113.306 250.375 113.29H78.6026C77.4537 113.306 76.3564 113.746 75.5439 114.516C74.7314 115.287 74.2678 116.328 74.2515 117.417C74.2515 148.591 74.2768 179.764 74.3276 210.936C74.3407 223.908 74.3537 236.882 74.3668 249.857C74.3668 255.168 83.069 255.176 83.069 249.857C83.0254 209.177 82.9892 168.498 82.9602 127.819C82.9602 124.353 82.9602 120.885 82.9602 117.417L78.6091 121.544H250.368L246.017 117.417C246.028 127.652 246.035 137.888 246.039 148.124L246.078 214.138C246.096 240.063 246.112 265.989 246.126 291.916L246.165 358.733C246.165 366.042 246.169 373.351 246.176 380.66C246.176 384.06 245.85 387.63 246.176 391.02C246.186 391.179 246.186 391.338 246.176 391.497H254.878C254.878 391.427 254.878 391.355 254.878 391.291C254.878 385.979 246.176 385.971 246.176 391.291L246.172 391.299Z" fill="#211715"/>
<path d="M799.078 432.176C804.678 432.176 804.687 423.922 799.078 423.922C793.47 423.922 793.47 432.176 799.078 432.176Z" fill="#211715"/>
<path d="M805.252 428.012C805.252 404.165 804.11 279.37 804.11 253.104H540.09C540.09 256.705 540.399 384.685 540.399 428.4" fill="white"/>
<path d="M809.604 428.012C809.604 407.216 809.373 386.419 809.216 365.625C809.008 337.975 808.803 310.331 808.603 282.693C808.54 272.829 808.464 262.968 808.461 253.105C808.445 252.015 807.982 250.974 807.169 250.203C806.357 249.433 805.259 248.993 804.11 248.978H540.09C538.941 248.993 537.844 249.433 537.032 250.203C536.219 250.974 535.756 252.015 535.739 253.105C535.739 269.406 535.809 285.695 535.844 301.99C535.906 331.181 535.961 360.374 536.009 389.57C536.029 402.512 536.042 415.455 536.048 428.4C536.048 433.711 544.75 433.719 544.75 428.4C544.75 402.549 544.716 376.698 544.646 350.849C544.597 324.332 544.541 297.814 544.478 271.296C544.465 265.234 544.441 259.169 544.441 253.105L540.09 257.231H804.11L799.759 253.105C799.759 274.476 799.988 295.849 800.147 317.22C800.354 344.703 800.558 372.187 800.76 399.672C800.823 409.119 800.901 418.565 800.901 428.012C800.901 433.323 809.604 433.332 809.604 428.012Z" fill="#211715"/>
<path d="M609.603 234.748C609.603 208.922 609.083 183.095 609.077 157.269C609.061 156.179 608.597 155.138 607.784 154.368C606.972 153.597 605.875 153.157 604.726 153.142H420.877C419.728 153.157 418.63 153.597 417.818 154.367C417.005 155.138 416.542 156.179 416.526 157.269C416.526 169.65 416.817 182.031 416.835 194.411C416.835 199.721 425.537 199.731 425.537 194.411C425.52 182.031 425.232 169.65 425.228 157.269L420.877 161.396H604.726L600.375 157.269C600.375 183.095 600.895 208.922 600.901 234.748C600.901 240.059 609.603 240.068 609.603 234.748V234.748Z" fill="#211715"/>
<path d="M205.244 432.176C210.843 432.176 210.852 423.922 205.244 423.922C199.635 423.922 199.635 432.176 205.244 432.176Z" fill="#211715"/>
<path d="M205.243 428.049C205.243 406.405 204.206 287.308 204.206 263.471H32.4463C32.4463 266.74 32.7269 388.724 32.7269 428.4" fill="white"/>
<path d="M209.595 428.049C209.595 408.562 209.377 389.074 209.244 369.589C209.054 343.332 208.868 317.075 208.685 290.818C208.629 281.702 208.559 272.588 208.557 263.471C208.54 262.382 208.077 261.341 207.264 260.57C206.452 259.8 205.355 259.36 204.206 259.344H32.4463C31.2976 259.36 30.2006 259.8 29.3883 260.571C28.5759 261.341 28.1121 262.382 28.0952 263.471C28.0952 278.838 28.1583 294.205 28.1888 309.571C28.2453 337.201 28.2961 364.831 28.3411 392.46C28.3585 404.441 28.3701 416.421 28.3759 428.4C28.3759 433.711 37.078 433.719 37.078 428.4C37.078 404.373 37.0461 380.345 36.9823 356.317C36.9374 331.107 36.8873 305.897 36.8322 280.687C36.8192 274.949 36.8076 269.21 36.7974 263.471L32.4463 267.598H204.206L199.855 263.471C199.855 283.487 200.072 303.49 200.207 323.497C200.394 349.609 200.581 375.719 200.766 401.829C200.821 410.567 200.892 419.308 200.892 428.049C200.892 433.358 209.595 433.369 209.595 428.049V428.049Z" fill="#211715"/>
<path d="M87.535 293.173C85.3334 293.173 67.185 293.214 63.5083 293.214V315.5H87.4393C87.4328 311.789 87.535 294.225 87.535 293.173Z" fill="#94D1E6"/>
<path d="M87.5351 289.046C79.5247 289.046 71.5165 289.087 63.5083 289.087C62.3594 289.103 61.2621 289.542 60.4497 290.313C59.6372 291.084 59.1735 292.124 59.1572 293.214V315.499C59.1735 316.589 59.6372 317.63 60.4497 318.401C61.2621 319.171 62.3594 319.611 63.5083 319.626H87.4393C88.5882 319.611 89.6855 319.171 90.498 318.401C91.3105 317.63 91.7741 316.589 91.7904 315.499C91.7904 308.054 91.8861 300.612 91.8927 293.169C91.8927 292.074 91.4343 291.024 90.6183 290.25C89.8023 289.477 88.6956 289.042 87.5416 289.042C86.3876 289.042 85.2809 289.477 84.4649 290.25C83.6489 291.024 83.1905 292.074 83.1905 293.169C83.1905 300.612 83.0904 308.054 83.0882 315.499L87.4393 311.373H63.5083L67.8594 315.499V293.218L63.5083 297.345C71.5165 297.345 79.5247 297.304 87.5351 297.304C88.689 297.304 89.7958 296.869 90.6117 296.095C91.4277 295.321 91.8861 294.271 91.8861 293.177C91.8861 292.082 91.4277 291.033 90.6117 290.259C89.7958 289.485 88.689 289.05 87.5351 289.05V289.046Z" fill="#211715"/>
<path d="M130.703 293.173C128.503 293.173 110.352 293.214 106.676 293.214V315.5H130.607C130.602 311.789 130.703 294.225 130.703 293.173Z" fill="#94D1E6"/>
<path d="M130.703 289.046C122.694 289.046 114.686 289.087 106.676 289.087C105.527 289.103 104.43 289.542 103.617 290.313C102.805 291.084 102.341 292.124 102.325 293.214V315.499C102.342 316.589 102.805 317.629 103.618 318.4C104.43 319.171 105.527 319.61 106.676 319.626H130.607C131.756 319.61 132.853 319.171 133.665 318.4C134.477 317.629 134.941 316.589 134.958 315.499C134.958 308.054 135.054 300.612 135.058 293.169C135.058 292.074 134.6 291.024 133.784 290.25C132.968 289.477 131.861 289.042 130.707 289.042C129.553 289.042 128.446 289.477 127.63 290.25C126.814 291.024 126.356 292.074 126.356 293.169C126.356 300.612 126.256 308.054 126.256 315.499L130.607 311.373H106.676L111.027 315.499V293.218L106.676 297.345C114.686 297.345 122.694 297.304 130.703 297.304C131.857 297.304 132.963 296.869 133.779 296.095C134.595 295.321 135.054 294.271 135.054 293.177C135.054 292.082 134.595 291.033 133.779 290.259C132.963 289.485 131.857 289.05 130.703 289.05V289.046Z" fill="#211715"/>
<path d="M173.872 292.865C171.67 292.865 153.522 292.909 149.845 292.909V315.194H173.776C173.77 311.476 173.872 293.92 173.872 292.865Z" fill="#94D1E6"/>
<path d="M173.872 288.738C165.864 288.738 157.853 288.78 149.845 288.782C148.696 288.797 147.599 289.237 146.787 290.008C145.974 290.778 145.51 291.819 145.494 292.909V315.194C145.51 316.284 145.974 317.325 146.787 318.095C147.599 318.866 148.696 319.306 149.845 319.321H173.776C174.925 319.306 176.022 318.866 176.835 318.095C177.647 317.325 178.111 316.284 178.127 315.194C178.127 307.749 178.223 300.306 178.23 292.861C178.23 291.767 177.771 290.717 176.955 289.943C176.139 289.169 175.032 288.734 173.878 288.734C172.725 288.734 171.618 289.169 170.802 289.943C169.986 290.717 169.527 291.767 169.527 292.861C169.527 300.306 169.427 307.749 169.425 315.194L173.776 311.067H149.845L154.196 315.194V292.909L149.845 297.036C157.853 297.036 165.864 296.994 173.872 296.992C175.026 296.992 176.133 296.558 176.949 295.784C177.765 295.01 178.223 293.96 178.223 292.865C178.223 291.771 177.765 290.721 176.949 289.947C176.133 289.173 175.026 288.738 173.872 288.738Z" fill="#211715"/>
<path d="M87.535 335.286C85.3334 335.286 67.185 335.327 63.5083 335.327V357.613H87.4393C87.4328 353.896 87.535 336.345 87.535 335.286Z" fill="#94D1E6"/>
<path d="M87.5351 331.159C79.5247 331.159 71.5165 331.2 63.5083 331.2C62.3596 331.216 61.2626 331.656 60.4503 332.427C59.6379 333.197 59.1741 334.238 59.1572 335.327V357.613C59.173 358.703 59.6365 359.744 60.4491 360.514C61.2617 361.285 62.3592 361.725 63.5083 361.74H87.4393C88.5882 361.724 89.6855 361.284 90.498 360.514C91.3105 359.743 91.7741 358.703 91.7904 357.613C91.7904 350.17 91.8861 342.727 91.8927 335.282C91.8927 334.187 91.4343 333.138 90.6183 332.364C89.8023 331.59 88.6956 331.155 87.5416 331.155C86.3876 331.155 85.2809 331.59 84.4649 332.364C83.6489 333.138 83.1905 334.187 83.1905 335.282C83.1905 342.727 83.0904 350.17 83.0882 357.613L87.4393 353.486H63.5083L67.8594 357.613V335.327L63.5083 339.454C71.5165 339.454 79.5247 339.415 87.5351 339.413C88.689 339.413 89.7958 338.978 90.6117 338.204C91.4277 337.43 91.8861 336.381 91.8861 335.286C91.8861 334.192 91.4277 333.142 90.6117 332.368C89.7958 331.594 88.689 331.159 87.5351 331.159V331.159Z" fill="#211715"/>
<path d="M130.703 335.286C128.503 335.286 110.352 335.327 106.676 335.327V357.613H130.607C130.602 353.896 130.703 336.345 130.703 335.286Z" fill="#94D1E6"/>
<path d="M130.703 331.159C122.694 331.159 114.686 331.2 106.676 331.2C105.527 331.216 104.43 331.656 103.618 332.427C102.805 333.197 102.342 334.238 102.325 335.327V357.613C102.341 358.703 102.805 359.743 103.617 360.514C104.43 361.284 105.527 361.724 106.676 361.74H130.607C131.756 361.724 132.853 361.284 133.665 360.513C134.477 359.743 134.941 358.702 134.958 357.613C134.958 350.17 135.054 342.727 135.058 335.282C135.058 334.187 134.6 333.138 133.784 332.364C132.968 331.59 131.861 331.155 130.707 331.155C129.553 331.155 128.446 331.59 127.63 332.364C126.814 333.138 126.356 334.187 126.356 335.282C126.356 342.727 126.256 350.17 126.256 357.613L130.607 353.486H106.676L111.027 357.613V335.327L106.676 339.454C114.686 339.454 122.694 339.415 130.703 339.413C131.857 339.413 132.963 338.978 133.779 338.204C134.595 337.43 135.054 336.381 135.054 335.286C135.054 334.192 134.595 333.142 133.779 332.368C132.963 331.594 131.857 331.159 130.703 331.159Z" fill="#211715"/>
<path d="M173.872 334.981C171.67 334.981 153.522 335.022 149.845 335.022V357.307H173.776C173.77 353.591 173.872 336.033 173.872 334.981Z" fill="#94D1E6"/>
<path d="M173.872 330.854C165.864 330.854 157.853 330.895 149.845 330.895C148.697 330.911 147.6 331.351 146.787 332.121C145.975 332.892 145.511 333.932 145.494 335.022V357.307C145.51 358.397 145.974 359.438 146.787 360.208C147.599 360.979 148.696 361.419 149.845 361.434H173.776C174.925 361.419 176.023 360.98 176.835 360.209C177.648 359.438 178.112 358.397 178.127 357.307C178.127 349.864 178.223 342.419 178.23 334.977C178.23 333.882 177.771 332.832 176.955 332.058C176.139 331.284 175.032 330.85 173.878 330.85C172.725 330.85 171.618 331.284 170.802 332.058C169.986 332.832 169.527 333.882 169.527 334.977C169.527 342.419 169.427 349.864 169.425 357.307L173.776 353.18H149.845L154.196 357.307V335.022L149.845 339.149C157.853 339.149 165.864 339.11 173.872 339.108C175.026 339.108 176.133 338.673 176.949 337.899C177.765 337.125 178.223 336.075 178.223 334.981C178.223 333.886 177.765 332.836 176.949 332.062C176.133 331.289 175.026 330.854 173.872 330.854Z" fill="#211715"/>
<path d="M507.422 432.176C513.022 432.176 513.031 423.922 507.422 423.922C501.814 423.922 501.814 432.176 507.422 432.176Z" fill="#211715"/>
<path d="M505.162 251.373C492.229 251.373 306.039 251.415 284.434 251.415V273.7H505.186" fill="#94D1E6"/>
<path d="M284.44 277.831H505.186C510.786 277.831 510.797 269.577 505.186 269.577H284.44C278.842 269.577 278.831 277.831 284.44 277.831Z" fill="#211715"/>
<path d="M284.44 255.5H505.186C510.786 255.5 510.797 247.246 505.186 247.246H284.44C278.842 247.246 278.831 255.5 284.44 255.5Z" fill="#211715"/>
<path d="M505.162 293.486C492.229 293.486 306.039 293.53 284.434 293.53V315.815H505.186" fill="#94D1E6"/>
<path d="M284.44 319.946H505.186C510.786 319.946 510.797 311.692 505.186 311.692H284.44C278.842 311.692 278.831 319.946 284.44 319.946Z" fill="#211715"/>
<path d="M284.44 297.613H505.186C510.786 297.613 510.797 289.359 505.186 289.359H284.44C278.842 289.359 278.831 297.613 284.44 297.613Z" fill="#211715"/>
<path d="M505.162 335.602C492.229 335.602 306.039 335.643 284.434 335.643V357.928H505.186" fill="#94D1E6"/>
<path d="M284.44 362.06H505.186C510.786 362.06 510.797 353.806 505.186 353.806H284.44C278.842 353.806 278.831 362.06 284.44 362.06Z" fill="#211715"/>
<path d="M284.44 339.729H505.186C510.786 339.729 510.797 331.475 505.186 331.475H284.44C278.842 331.475 278.831 339.729 284.44 339.729Z" fill="#211715"/>
<path d="M605.217 371.776V428.206C605.217 433.517 613.919 433.526 613.919 428.206V371.776C613.919 366.465 605.217 366.457 605.217 371.776Z" fill="#211715"/>
<path d="M563.171 371.776V428.206C563.171 433.517 571.873 433.526 571.873 428.206V371.776C571.873 366.465 563.171 366.457 563.171 371.776Z" fill="#211715"/>
<path d="M647.267 371.776V428.206C647.267 433.517 655.969 433.526 655.969 428.206V371.776C655.969 366.465 647.267 366.457 647.267 371.776Z" fill="#211715"/>
<path d="M689.315 371.776V428.206C689.315 433.517 698.018 433.526 698.018 428.206V371.776C698.018 366.465 689.315 366.457 689.315 371.776Z" fill="#211715"/>
<path d="M731.364 371.776V428.206C731.364 433.517 740.067 433.526 740.067 428.206V371.776C740.067 366.465 731.364 366.457 731.364 371.776Z" fill="#211715"/>
<path d="M773.406 371.776V428.206C773.406 433.517 782.108 433.526 782.108 428.206V371.776C782.108 366.465 773.406 366.457 773.406 371.776Z" fill="#211715"/>
<path d="M845.659 422.372C845.659 409.336 845.592 396.299 845.546 383.262C845.462 358.609 845.372 333.956 845.276 309.305C845.167 280.213 845.058 251.118 844.948 222.02C844.852 196.282 844.758 170.545 844.667 144.81C844.613 129.59 844.567 114.37 844.528 99.1515V96.8817C844.511 95.7921 844.047 94.7517 843.235 93.9812C842.422 93.2107 841.325 92.7707 840.177 92.7548H665.994C664.845 92.7702 663.747 93.21 662.935 93.9806C662.122 94.7512 661.659 95.792 661.643 96.8817C661.643 104.472 661.653 112.064 661.675 119.656C661.706 140.655 661.732 161.655 661.756 182.656C661.776 200.099 661.794 217.542 661.81 234.985C661.81 240.297 670.512 240.305 670.512 234.985C670.486 206.851 670.456 178.715 670.421 150.577C670.402 135.299 670.38 120.021 670.356 104.741C670.356 102.121 670.356 99.5009 670.356 96.8817L666.004 101.009H840.188L835.836 96.8817C835.836 110.294 835.904 123.707 835.95 137.119C836.034 161.965 836.124 186.81 836.219 211.656C836.328 240.759 836.438 269.863 836.548 298.967C836.644 324.533 836.737 350.1 836.829 375.666C836.881 390.523 836.927 405.387 836.968 420.26V422.358C836.968 427.667 845.67 427.678 845.67 422.358L845.659 422.372Z" fill="#211715"/>
<path d="M810.036 150.507H693.797C688.199 150.507 688.189 158.761 693.797 158.761H810.036C815.636 158.761 815.645 150.507 810.036 150.507Z" fill="#211715"/>
<path d="M840.468 117.164H665.989C660.389 117.164 660.381 125.417 665.989 125.417H840.468C846.068 125.417 846.077 117.164 840.468 117.164Z" fill="#211715"/>
<path d="M810.036 176.069H693.797C688.199 176.069 688.189 184.323 693.797 184.323H810.036C815.636 184.323 815.645 176.069 810.036 176.069Z" fill="#211715"/>
<path d="M810.036 201.631H693.797C688.199 201.631 688.189 209.885 693.797 209.885H810.036C815.636 209.885 815.645 201.631 810.036 201.631Z" fill="#211715"/>
<path d="M804.952 387.172H540.338C534.739 387.172 534.73 395.426 540.338 395.426H804.952C810.552 395.426 810.561 387.172 804.952 387.172Z" fill="#211715"/>
<path d="M804.952 367.649H540.338C534.739 367.649 534.73 375.903 540.338 375.903H804.952C810.552 375.903 810.561 367.649 804.952 367.649Z" fill="#211715"/>
<path d="M878.161 351.676C878.161 348.331 878.161 163.571 878.161 159.615H1049.84C1049.84 163.571 1049.84 348.331 1049.84 351.676" fill="#94D1E6"/>
<path d="M1046.24 159.615V293.07C1046.24 298.381 1054.94 298.389 1054.94 293.07V159.615C1054.94 154.306 1046.24 154.296 1046.24 159.615Z" fill="#211715"/>
<path d="M906.133 159.615V327.115C906.133 335.102 905.867 343.136 906.133 351.121C906.133 351.305 906.133 351.49 906.133 351.676C906.133 356.988 914.835 356.996 914.835 351.676V184.49C914.835 176.412 915.085 168.292 914.835 160.214C914.835 160.007 914.835 159.815 914.835 159.615C914.835 154.306 906.133 154.296 906.133 159.615Z" fill="#211715"/>
<path d="M942.057 159.615V327.115C942.057 335.102 941.792 343.136 942.057 351.121C942.057 351.305 942.057 351.49 942.057 351.676C942.057 356.988 950.76 356.996 950.76 351.676V184.49C950.76 176.412 951.01 168.292 950.76 160.214C950.76 160.007 950.76 159.815 950.76 159.615C950.76 154.306 942.057 154.296 942.057 159.615Z" fill="#211715"/>
<path d="M977.982 159.615V327.115C977.982 335.102 977.715 343.136 977.982 351.121C977.982 351.305 977.982 351.49 977.982 351.676C977.982 356.988 986.684 356.996 986.684 351.676V184.49C986.684 176.412 986.932 168.292 986.684 160.214C986.684 160.007 986.684 159.815 986.684 159.615C986.684 154.306 977.982 154.296 977.982 159.615Z" fill="#211715"/>
<path d="M934.692 379.721V426.518C934.692 431.827 943.395 431.837 943.395 426.518V379.721C943.395 374.409 934.692 374.401 934.692 379.721Z" fill="#211715"/>
<path d="M961.727 381.427V425.402C961.727 430.713 970.429 430.721 970.429 425.402V381.427C970.429 376.116 961.727 376.108 961.727 381.427Z" fill="#211715"/>
<path d="M988.76 379.721V426.518C988.76 431.827 997.462 431.837 997.462 426.518V379.721C997.462 374.409 988.76 374.401 988.76 379.721Z" fill="#211715"/>
<path d="M1013.91 159.615V327.115C1013.91 335.102 1013.64 343.136 1013.91 351.121C1013.91 351.305 1013.91 351.49 1013.91 351.676C1013.91 356.988 1022.61 356.996 1022.61 351.676V184.49C1022.61 176.412 1022.86 168.292 1022.61 160.214C1022.61 160.007 1022.61 159.815 1022.61 159.615C1022.61 154.306 1013.91 154.296 1013.91 159.615Z" fill="#211715"/>
<path d="M1054.94 426.312C1054.94 415.126 1054.88 403.938 1054.84 392.749C1054.76 372.759 1054.68 352.768 1054.59 332.777C1054.49 309.658 1054.39 286.539 1054.29 263.422C1054.2 242.548 1054.12 221.674 1054.03 200.802C1053.98 187.847 1053.94 174.893 1053.91 161.939C1053.91 161.163 1053.91 160.385 1053.91 159.609C1053.89 158.519 1053.43 157.478 1052.61 156.708C1051.8 155.937 1050.7 155.497 1049.56 155.482H877.887C876.738 155.498 875.642 155.938 874.829 156.708C874.017 157.479 873.553 158.519 873.536 159.609C873.536 167.542 873.546 175.476 873.564 183.409C873.586 201.896 873.609 220.384 873.632 238.873C873.658 262.087 873.685 285.301 873.712 308.515C873.737 330.931 873.76 353.346 873.782 375.761C873.798 391.556 873.81 407.352 873.817 423.148V426.724C873.817 432.036 882.519 432.044 882.519 426.724C882.519 412.123 882.51 397.522 882.491 382.921C882.47 361.004 882.448 339.087 882.423 317.169C882.397 293.76 882.37 270.35 882.343 246.939C882.32 227.559 882.296 208.179 882.273 188.801C882.264 182.473 882.256 176.145 882.249 169.817C882.249 166.664 882.504 163.393 882.249 160.249C882.232 160.042 882.249 159.836 882.249 159.63L877.898 163.756H1049.56L1045.21 159.63C1045.21 171.22 1045.27 182.808 1045.32 194.399C1045.39 214.596 1045.48 234.794 1045.56 254.993L1045.86 324.383C1045.95 345.074 1046.04 365.765 1046.12 386.456C1046.17 399.033 1046.21 411.61 1046.25 424.186C1046.25 424.902 1046.25 425.616 1046.25 426.332C1046.25 431.644 1054.95 431.654 1054.95 426.332L1054.94 426.312Z" fill="#211715"/>
<path d="M1050.59 374.807H881.566C875.967 374.807 875.958 383.061 881.566 383.061H1050.59C1056.19 383.061 1056.2 374.807 1050.59 374.807Z" fill="#211715"/>
<path d="M1050.59 347.549H881.566C875.967 347.549 875.958 355.803 881.566 355.803H1050.59C1056.19 355.803 1056.2 347.549 1050.59 347.549Z" fill="#211715"/>
<path d="M993.111 375.594H939.044C933.444 375.594 933.435 383.848 939.044 383.848H993.111C998.711 383.848 998.719 375.594 993.111 375.594Z" fill="#211715"/>
<path d="M729.13 277.761C726.706 277.761 706.706 277.808 702.653 277.808V302.363H729.025C729.025 298.268 729.13 278.923 729.13 277.761Z" fill="#94D1E6"/>
<path d="M729.13 273.634C720.306 273.634 711.48 273.679 702.654 273.681C701.505 273.697 700.408 274.137 699.595 274.907C698.783 275.678 698.319 276.719 698.303 277.808V302.363C698.32 303.453 698.783 304.493 699.596 305.264C700.408 306.034 701.505 306.474 702.654 306.49H729.026C730.174 306.474 731.271 306.034 732.084 305.264C732.896 304.493 733.36 303.453 733.377 302.363C733.377 294.159 733.483 285.957 733.488 277.755C733.488 276.66 733.029 275.61 732.213 274.836C731.397 274.062 730.291 273.628 729.137 273.628C727.983 273.628 726.876 274.062 726.06 274.836C725.244 275.61 724.786 276.66 724.786 277.755C724.786 285.957 724.677 294.159 724.675 302.363L729.026 298.237H702.654L707.005 302.363V277.808L702.654 281.935C711.48 281.935 720.306 281.89 729.13 281.888C730.284 281.888 731.391 281.453 732.207 280.679C733.023 279.905 733.481 278.855 733.481 277.761C733.481 276.666 733.023 275.617 732.207 274.843C731.391 274.069 730.284 273.634 729.13 273.634Z" fill="#211715"/>
<path d="M776.7 277.761C774.274 277.761 754.275 277.808 750.224 277.808V302.363H776.587C776.587 298.268 776.7 278.923 776.7 277.761Z" fill="#94D1E6"/>
<path d="M776.701 273.634C767.874 273.634 759.048 273.679 750.224 273.681C749.075 273.697 747.978 274.137 747.166 274.907C746.353 275.678 745.889 276.719 745.873 277.808V302.363C745.889 303.453 746.353 304.494 747.166 305.265C747.978 306.035 749.075 306.475 750.224 306.49H776.587C777.736 306.475 778.834 306.035 779.646 305.265C780.459 304.494 780.922 303.453 780.939 302.363C780.939 294.159 781.045 285.957 781.052 277.755C781.052 276.66 780.593 275.61 779.777 274.836C778.961 274.062 777.855 273.628 776.701 273.628C775.547 273.628 774.44 274.062 773.624 274.836C772.808 275.61 772.349 276.66 772.349 277.755C772.349 285.957 772.238 294.159 772.236 302.363L776.587 298.237H750.224L754.575 302.363V277.808L750.224 281.935C759.048 281.935 767.874 281.89 776.701 281.888C777.855 281.888 778.961 281.453 779.777 280.679C780.593 279.905 781.052 278.855 781.052 277.761C781.052 276.666 780.593 275.617 779.777 274.843C778.961 274.069 777.855 273.634 776.701 273.634Z" fill="#211715"/>
<path d="M510.539 428.049C510.539 404.666 510.322 381.283 510.189 357.891C510.001 325.289 509.814 292.691 509.63 260.1C509.576 249.522 509.504 238.943 509.502 228.366C509.485 227.276 509.022 226.235 508.209 225.465C507.397 224.694 506.3 224.254 505.151 224.239H284.054C282.905 224.255 281.809 224.695 280.996 225.465C280.184 226.236 279.72 227.276 279.703 228.366C279.703 247.812 279.735 267.257 279.799 286.702C279.855 320.576 279.906 354.449 279.951 388.323C279.966 401.678 279.977 415.033 279.984 428.389C279.984 433.701 288.686 433.709 288.686 428.389C288.686 400.271 288.655 372.153 288.592 344.033C288.545 312.611 288.494 281.188 288.44 249.766C288.43 242.633 288.418 235.5 288.405 228.366L284.054 232.493H505.161L500.81 228.366C500.81 252.271 501.028 276.174 501.161 300.079C501.348 332.529 501.534 364.981 501.72 397.433C501.774 407.633 501.846 417.837 501.848 428.039C501.848 433.348 510.55 433.358 510.55 428.039L510.539 428.049Z" fill="#211715"/>
<path d="M37.6047 356.657C36.2809 355.687 34.6549 355.16 32.9816 355.16C31.3083 355.16 29.6823 355.687 28.3586 356.657C21.9598 361.41 17.0093 367.692 14.0152 374.859C13.0773 377.019 12.3697 379.263 11.9028 381.557C11.5246 383.75 11.2841 385.961 11.1827 388.181C10.6286 392.074 10.9647 396.035 12.1682 399.794C13.4944 402.983 15.9992 405.605 19.2148 407.171C23.619 408.735 28.2833 409.536 32.986 409.538C37.6807 409.463 42.3313 408.664 46.755 407.171C49.9706 405.605 52.4754 402.983 53.8016 399.794C55.0068 396.035 55.3437 392.074 54.7893 388.181C54.6871 385.961 54.4459 383.75 54.067 381.557C53.6009 379.263 52.8939 377.019 51.9567 374.859C48.9628 367.69 44.0088 361.407 37.6047 356.657V356.657Z" fill="#8ACC89"/>
<path d="M39.8127 353.094C28.0082 345.436 16.1645 361.044 11.6655 369.773C8.75994 375.536 7.11551 381.798 6.83143 388.181C6.39632 394.578 6.70089 400.917 11.1107 406.108C17.7374 413.908 30.1185 414.362 39.7866 413.06C45.1885 412.338 50.2575 410.976 54.0625 407.004C58.7487 402.111 59.5928 395.913 59.2251 389.539C59.0406 382.421 57.2295 375.427 53.9168 369.038C50.7143 363.096 46.1999 357.877 40.6807 353.738C39.8477 352.995 38.7476 352.582 37.6045 352.582C36.4614 352.582 35.3614 352.995 34.5283 353.738C33.7193 354.515 33.2657 355.564 33.2657 356.656C33.2657 357.749 33.7193 358.797 34.5283 359.575C42.1386 365.097 47.4969 372.95 49.6919 381.797C50.9713 386.772 51.1366 391.946 50.177 396.986C49.7465 398.672 48.8508 400.219 47.582 401.469C46.3131 402.718 44.7167 403.625 42.9564 404.096C36.4297 405.799 28.1061 406.246 21.7383 403.737C19.8795 402.919 18.2998 401.623 17.1788 399.997C16.0577 398.37 15.4403 396.477 15.3966 394.534C14.9847 389.54 15.4762 384.515 16.8498 379.677C18.3404 374.877 20.7854 370.39 24.053 366.461C26.4918 363.523 31.0801 357.408 35.4094 360.219C40.0411 363.227 44.3988 356.078 39.8127 353.094Z" fill="#211715"/>
<path d="M240.763 427.531V410.243H256.891V427.531" fill="#89705D"/>
<path d="M253.451 356.657C252.127 355.687 250.501 355.16 248.828 355.16C247.155 355.16 245.529 355.687 244.205 356.657C237.805 361.41 232.854 367.692 229.859 374.859C228.922 377.019 228.215 379.263 227.749 381.557C227.37 383.75 227.129 385.961 227.027 388.181C226.473 392.074 226.809 396.035 228.015 399.794C229.341 402.983 231.846 405.605 235.061 407.171C239.465 408.735 244.128 409.536 248.83 409.538C253.526 409.463 258.177 408.664 262.601 407.171C265.817 405.605 268.322 402.983 269.648 399.794C270.851 396.035 271.188 392.074 270.634 388.181C270.532 385.961 270.292 383.75 269.913 381.557C269.447 379.263 268.739 377.019 267.801 374.859C264.807 367.691 259.854 361.408 253.451 356.657V356.657Z" fill="#8ACC89"/>
<path d="M255.642 353.094C243.848 345.436 232.007 361.044 227.506 369.773C224.601 375.536 222.957 381.798 222.672 388.181C222.25 394.578 222.541 400.917 226.953 406.108C233.58 413.908 245.961 414.362 255.629 413.06C261.031 412.338 266.098 410.976 269.903 407.004C274.591 402.111 275.433 395.913 275.067 389.539C274.882 382.421 273.071 375.427 269.759 369.038C266.557 363.096 262.042 357.877 256.523 353.738C255.69 352.995 254.59 352.582 253.447 352.582C252.304 352.582 251.204 352.995 250.371 353.738C249.561 354.515 249.107 355.564 249.107 356.656C249.107 357.749 249.561 358.798 250.371 359.575C257.98 365.098 263.338 372.95 265.532 381.797C266.814 386.771 266.979 391.946 266.017 396.986C265.587 398.672 264.692 400.22 263.423 401.469C262.154 402.719 260.557 403.626 258.797 404.096C252.27 405.799 243.948 406.246 237.578 403.737C235.72 402.919 234.14 401.623 233.019 399.996C231.898 398.37 231.281 396.477 231.237 394.534C230.825 389.54 231.316 384.515 232.69 379.677C234.182 374.877 236.627 370.391 239.893 366.461C242.332 363.523 246.922 357.408 251.25 360.219C255.883 363.227 260.241 356.078 255.642 353.094Z" fill="#211715"/>
<path d="M252.146 410.244V427.531C252.146 428.626 252.604 429.675 253.42 430.449C254.236 431.223 255.343 431.658 256.497 431.658C257.651 431.658 258.758 431.223 259.574 430.449C260.39 429.675 260.848 428.626 260.848 427.531V410.244C260.848 409.149 260.39 408.099 259.574 407.325C258.758 406.551 257.651 406.117 256.497 406.117C255.343 406.117 254.236 406.551 253.42 407.325C252.604 408.099 252.146 409.149 252.146 410.244Z" fill="#211715"/>
<path d="M236.021 410.244V427.531C236.021 428.626 236.479 429.675 237.295 430.449C238.111 431.223 239.218 431.658 240.372 431.658C241.526 431.658 242.632 431.223 243.448 430.449C244.264 429.675 244.723 428.626 244.723 427.531V410.244C244.723 409.149 244.264 408.099 243.448 407.325C242.632 406.551 241.526 406.117 240.372 406.117C239.218 406.117 238.111 406.551 237.295 407.325C236.479 408.099 236.021 409.149 236.021 410.244Z" fill="#211715"/>
<path d="M834.02 427.531V410.243H850.145V427.531" fill="#89705D"/>
<path d="M846.703 356.657C845.379 355.687 843.753 355.16 842.08 355.16C840.407 355.16 838.781 355.687 837.457 356.657C831.057 361.41 826.106 367.692 823.111 374.859C822.174 377.019 821.467 379.263 821.001 381.557C820.622 383.75 820.381 385.961 820.279 388.181C819.724 392.074 820.061 396.035 821.267 399.794C822.593 402.983 825.098 405.605 828.313 407.171C832.717 408.735 837.38 409.536 842.082 409.538C846.777 409.464 851.428 408.664 855.851 407.171C859.067 405.606 861.573 402.983 862.9 399.794C864.103 396.035 864.44 392.074 863.886 388.181C863.784 385.961 863.544 383.75 863.165 381.557C862.699 379.263 861.991 377.019 861.053 374.859C858.059 367.691 853.106 361.408 846.703 356.657V356.657Z" fill="#8ACC89"/>
<path d="M848.898 353.094C837.104 345.436 825.26 361.044 820.761 369.773C817.857 375.536 816.213 381.798 815.927 388.181C815.505 394.578 815.797 400.917 820.209 406.108C826.836 413.908 839.214 414.362 848.885 413.06C854.287 412.338 859.353 410.976 863.158 407.004C867.847 402.111 868.689 395.913 868.323 389.539C868.138 382.421 866.327 375.427 863.015 369.038C859.812 363.096 855.298 357.877 849.779 353.738C848.945 352.995 847.845 352.582 846.702 352.582C845.558 352.582 844.458 352.995 843.624 353.738C842.815 354.515 842.362 355.564 842.362 356.656C842.362 357.749 842.815 358.797 843.624 359.575C851.235 365.097 856.594 372.949 858.788 381.797C860.069 386.771 860.235 391.946 859.273 396.986C858.843 398.672 857.948 400.22 856.679 401.469C855.41 402.719 853.813 403.626 852.052 404.096C845.526 405.799 837.204 406.246 830.834 403.737C828.976 402.919 827.396 401.623 826.275 399.996C825.154 398.37 824.537 396.477 824.493 394.534C824.081 389.54 824.572 384.515 825.946 379.677C827.437 374.877 829.882 370.391 833.149 366.461C835.588 363.523 840.176 357.408 844.505 360.219C849.139 363.227 853.497 356.078 848.898 353.094Z" fill="#211715"/>
<path d="M845.402 410.244V427.531C845.402 428.626 845.861 429.675 846.677 430.449C847.493 431.223 848.599 431.658 849.753 431.658C850.907 431.658 852.014 431.223 852.83 430.449C853.646 429.675 854.105 428.626 854.105 427.531V410.244C854.105 409.149 853.646 408.099 852.83 407.325C852.014 406.551 850.907 406.117 849.753 406.117C848.599 406.117 847.493 406.551 846.677 407.325C845.861 408.099 845.402 409.149 845.402 410.244Z" fill="#211715"/>
<path d="M829.277 410.244V427.531C829.277 428.626 829.736 429.675 830.552 430.449C831.368 431.223 832.475 431.658 833.629 431.658C834.783 431.658 835.889 431.223 836.705 430.449C837.521 429.675 837.98 428.626 837.98 427.531V410.244C837.98 409.149 837.521 408.099 836.705 407.325C835.889 406.551 834.783 406.117 833.629 406.117C832.475 406.117 831.368 406.551 830.552 407.325C829.736 408.099 829.277 409.149 829.277 410.244Z" fill="#211715"/>
<path d="M1042.46 427.531V410.243H1058.59V427.531" fill="#89705D"/>
<path d="M1055.14 356.657C1053.82 355.687 1052.19 355.16 1050.52 355.16C1048.84 355.16 1047.22 355.687 1045.89 356.657C1039.49 361.41 1034.54 367.692 1031.55 374.859C1030.61 377.019 1029.9 379.263 1029.44 381.557C1029.06 383.75 1028.82 385.961 1028.72 388.181C1028.16 392.074 1028.5 396.035 1029.7 399.794C1031.03 402.983 1033.54 405.605 1036.75 407.171C1041.15 408.735 1045.82 409.536 1050.52 409.538C1055.21 409.464 1059.86 408.664 1064.29 407.171C1067.5 405.606 1070.01 402.983 1071.34 399.794C1072.54 396.035 1072.88 392.074 1072.32 388.181C1072.22 385.961 1071.98 383.75 1071.6 381.557C1071.14 379.263 1070.43 377.019 1069.49 374.859C1066.5 367.691 1061.54 361.408 1055.14 356.657Z" fill="#8ACC89"/>
<path d="M1057.34 353.094C1045.55 345.436 1033.7 361.044 1029.2 369.773C1026.3 375.536 1024.65 381.798 1024.37 388.181C1023.95 394.578 1024.24 400.917 1028.65 406.108C1035.28 413.908 1047.66 414.362 1057.33 413.06C1062.73 412.338 1067.8 410.976 1071.6 407.004C1076.29 402.111 1077.13 395.913 1076.76 389.539C1076.58 382.421 1074.77 375.427 1071.46 369.038C1068.25 363.096 1063.74 357.877 1058.22 353.738C1057.39 352.995 1056.29 352.582 1055.14 352.582C1054 352.582 1052.9 352.995 1052.07 353.738C1051.26 354.515 1050.8 355.564 1050.8 356.656C1050.8 357.749 1051.26 358.797 1052.07 359.575C1059.68 365.097 1065.04 372.949 1067.23 381.797C1068.51 386.771 1068.68 391.946 1067.71 396.986C1067.28 398.672 1066.39 400.22 1065.12 401.469C1063.85 402.719 1062.25 403.626 1060.49 404.096C1053.97 405.799 1045.65 406.246 1039.28 403.737C1037.42 402.919 1035.84 401.623 1034.72 399.996C1033.6 398.37 1032.98 396.477 1032.93 394.534C1032.52 389.54 1033.01 384.515 1034.39 379.677C1035.88 374.877 1038.32 370.391 1041.59 366.461C1044.03 363.523 1048.62 357.408 1052.95 360.219C1057.58 363.227 1061.94 356.078 1057.34 353.094Z" fill="#211715"/>
<path d="M1053.83 410.244V427.531C1053.83 428.626 1054.29 429.675 1055.11 430.449C1055.92 431.223 1057.03 431.658 1058.19 431.658C1059.34 431.658 1060.45 431.223 1061.26 430.449C1062.08 429.675 1062.54 428.626 1062.54 427.531V410.244C1062.54 409.149 1062.08 408.099 1061.26 407.325C1060.45 406.551 1059.34 406.117 1058.19 406.117C1057.03 406.117 1055.92 406.551 1055.11 407.325C1054.29 408.099 1053.83 409.149 1053.83 410.244Z" fill="#211715"/>
<path d="M1037.72 410.244V427.531C1037.72 428.626 1038.18 429.675 1038.99 430.449C1039.81 431.223 1040.92 431.658 1042.07 431.658C1043.22 431.658 1044.33 431.223 1045.15 430.449C1045.96 429.675 1046.42 428.626 1046.42 427.531V410.244C1046.42 409.149 1045.96 408.099 1045.15 407.325C1044.33 406.551 1043.22 406.117 1042.07 406.117C1040.92 406.117 1039.81 406.551 1038.99 407.325C1038.18 408.099 1037.72 409.149 1037.72 410.244Z" fill="#211715"/>
<path d="M4.20312 428.581C37.6739 428.581 1044.16 428.231 1075.8 428.231Z" fill="white"/>
<path d="M4.20316 432.708C16.2064 432.708 28.2081 432.708 40.2084 432.708L120.514 432.682L235.383 432.644L372.33 432.599L522.442 432.547L673.282 432.496L814.509 432.448L935.265 432.409L1024.68 432.38L1071.91 432.366H1075.81C1081.41 432.366 1081.42 424.112 1075.81 424.112C1063.97 424.112 1052.13 424.112 1040.29 424.112L960.36 424.139L845.774 424.176L708.998 424.221L558.946 424.273L408.067 424.325L266.696 424.372L145.69 424.411L55.9115 424.455L8.22357 424.469H4.20316C-1.3967 424.469 -1.4054 432.723 4.20316 432.723V432.708Z" fill="#211715"/>
</g>
<defs>
<clipPath id="clip0">
<rect width="1080" height="500" fill="white"/>
</clipPath>
</defs>
</svg>
