<svg width="653" height="176" viewBox="0 0 653 176" fill="none" xmlns="http://www.w3.org/2000/svg">
<path d="M205.15 146.933C212.281 146.933 218.811 144.592 224.139 142.707C226.287 141.965 228.263 141.223 229.724 140.88C257.648 133.913 319.255 128.317 355.772 127.917C358.35 127.917 360.928 127.86 363.419 127.86C392.977 127.86 417.98 129.573 445.218 131.629L449.256 131.914C473.143 133.742 495.826 135.455 519.885 135.455C522.548 135.455 525.126 135.455 527.704 135.398C583.038 134.484 624.281 118.666 643.785 90.7982C655.471 74.1233 656.072 55.1642 645.418 38.7177C635.451 23.2992 616.977 11.878 593.349 6.56716C573.758 2.17002 548.411 0 515.76 0C480.962 0 442.984 2.39844 406.295 4.68267C373.3 6.73848 342.196 8.73718 316.591 8.73718C306.281 8.73718 295.626 9.02271 283.253 9.30824C267.53 9.70798 249.829 10.1648 228.091 10.1648C197.245 10.1648 165.196 9.25113 130.053 7.30954C123.953 6.9669 118.024 6.79559 112.267 6.79559C61.6586 6.79559 23.423 20.0441 7.44135 43.172C-6.56406 63.3874 -0.463548 88.1713 22.9074 106.331C50.7464 127.917 113.986 128.317 155.916 128.602C167 128.659 180.576 128.774 185.13 129.516C185.13 129.859 185.044 130.315 184.958 130.658C184.528 133.742 183.669 139.452 193.378 144.306C196.815 146.077 200.768 146.933 205.15 146.933Z" fill="black"/>
<path d="M318.912 13.6484C397.015 13.6484 524.439 -4.22572 592.748 11.1357C639.06 21.5861 658.908 57.2201 637.943 87.2577C616.892 117.295 572.813 127.746 529.766 128.431C474.776 129.345 427.26 120.151 357.921 120.893C322.177 121.236 258.594 126.775 228.951 134.199C221.046 136.083 209.618 142.765 201.026 138.482C190.457 133.228 201.026 127.974 193.121 123.691C182.209 117.809 68.6186 129.859 32.0155 101.42C-13.4376 66.1286 13.628 5.71069 131.686 12.1636C231.958 17.7029 279.903 13.6484 318.912 13.6484Z" fill="white"/>
<path d="M174.045 162.009C182.38 162.009 189.168 157.84 189.168 152.701C189.168 147.561 182.38 143.392 174.045 143.392C165.711 143.392 158.923 147.561 158.923 152.701C158.923 157.84 165.711 162.009 174.045 162.009Z" fill="black"/>
<path d="M166.57 152.244C166.57 154.814 170.179 156.87 174.733 156.87C179.201 156.87 182.895 154.814 182.895 152.244C182.895 149.674 179.287 147.618 174.733 147.618C170.179 147.676 166.57 149.731 166.57 152.244Z" fill="white"/>
<path d="M147.839 176C154.885 176 160.642 172.459 160.642 168.062C160.642 163.665 154.885 160.125 147.839 160.125C140.793 160.125 135.037 163.665 135.037 168.062C135.037 172.402 140.793 176 147.839 176Z" fill="black"/>
<path d="M141.222 167.32C141.222 169.376 144.144 171.032 147.753 171.032C151.361 171.032 154.283 169.376 154.283 167.32C154.283 165.264 151.361 163.608 147.753 163.608C144.144 163.608 141.222 165.264 141.222 167.32Z" fill="white"/>
</svg>
