<!--?xml version="1.0" encoding="utf-8"?-->
<!-- Generator: Adobe Illustrator 22.1.0, SVG Export Plug-In . SVG Version: 6.00 Build 0)  -->
<svg version="1.1" id="_x33_" xmlns="http://www.w3.org/2000/svg" xmlns:xlink="http://www.w3.org/1999/xlink" x="0px" y="0px" viewBox="0 0 800 324.3" style="enable-background:new 0 0 800 324.3;" xml:space="preserve">
<style type="text/css">
	.stblack{fill:#000000;}
	.st0{fill:#FFFFFF;}
</style>
<g>
	<path class="stblack" d="M541.2,265.3c-8.3,0-15.9-4.1-22.1-7.4c-2.5-1.3-4.8-2.6-6.5-3.2c-32.5-12.2-104.2-22-146.7-22.7c-3,0-6-0.1-8.9-0.1
		c-34.4,0-63.5,3-95.2,6.6l-4.7,0.5c-27.8,3.2-54.2,6.2-82.2,6.2c-3.1,0-6.1,0-9.1-0.1c-64.4-1.6-112.4-29.3-135.1-78.1
		c-13.6-29.2-14.3-62.4-1.9-91.2c11.6-27,33.1-47,60.6-56.3c22.8-7.7,52.3-11.5,90.3-11.5c40.5,0,84.7,4.2,127.4,8.2
		c38.4,3.6,74.6,7.1,104.4,7.1c12,0,24.4,0.5,38.8,1c18.3,0.7,38.9,1.5,64.2,1.5c35.9,0,73.2-1.6,114.1-5c7.1-0.6,14-0.9,20.7-0.9
		c58.9,0,103.4,23.2,122,63.7c16.3,35.4,9.2,78.8-18,110.6c-32.4,37.8-106,38.5-154.8,39c-12.9,0.1-28.7,0.3-34,1.6
		c0,0.6,0.1,1.4,0.2,2c0.5,5.4,1.5,15.4-9.8,23.9C550.9,263.8,546.3,265.3,541.2,265.3L541.2,265.3z"></path>
	<path class="st0" d="M408.8,31.9c-90.9,0-239.2-31.3-318.7-4.4c-53.9,18.3-77,80.7-52.6,133.3c24.5,52.6,75.8,70.9,125.9,72.1
		c64,1.6,119.3-14.5,200-13.2C405,220.3,479,230,513.5,243c9.2,3.3,22.5,15,32.5,7.5c12.3-9.2,0-18.4,9.2-25.9
		c12.7-10.3,144.9,10.8,187.5-39c52.9-61.8,21.4-167.6-116-156.3C510,39,454.2,31.9,408.8,31.9z"></path>
	<path class="stblack" d="M577.4,291.7c-9.7,0-17.6-7.3-17.6-16.3c0-9,7.9-16.3,17.6-16.3c9.7,0,17.6,7.3,17.6,16.3
		C595,284.4,587.1,291.7,577.4,291.7L577.4,291.7z"></path>
	<path class="st0" d="M586.1,274.6c0,4.5-4.2,8.1-9.5,8.1c-5.2,0-9.5-3.6-9.5-8.1c0-4.5,4.2-8.1,9.5-8.1
		C581.9,266.6,586.1,270.2,586.1,274.6z"></path>
	<path class="stblack" d="M607.9,316.2c-8.2,0-14.9-6.2-14.9-13.9c0-7.7,6.7-13.9,14.9-13.9c8.2,0,14.9,6.2,14.9,13.9
		C622.8,309.9,616.1,316.2,607.9,316.2L607.9,316.2z"></path>
	<path class="st0" d="M615.6,301c0,3.6-3.4,6.5-7.6,6.5c-4.2,0-7.6-2.9-7.6-6.5c0-3.6,3.4-6.5,7.6-6.5
		C612.2,294.5,615.6,297.4,615.6,301z"></path>
</g>
</svg>
