<svg width="470" height="180" viewBox="0 0 470 180" fill="none" xmlns="http://www.w3.org/2000/svg">
<path d="M130 107.341V159.841C130 176.508 121.953 182.675 105.86 178.341L24.14 156.341C8.04667 152.008 0 141.508 0 124.841L0 19.8413C0 3.17463 8.04667 -2.99204 24.14 1.34129L105.86 23.3413C121.953 27.6746 130 38.1746 130 54.8413L130 107.341Z" fill="#808080"/>
<path d="M20 72.3413V42.3413C20 25.6746 28.3333 17.3413 45 17.3413H445C461.667 17.3413 470 25.6746 470 42.3413V102.341C470 119.008 461.667 127.341 445 127.341H164C147.333 127.341 131.35 130.645 116.05 137.251L69.5 157.341L85.25 142.341C95.75 132.341 92.6667 127.341 76 127.341H45C28.3333 127.341 20 119.008 20 102.341V72.3413Z" fill="#FDDB3A"/>
<path d="M91.6525 72.0913C92.5192 73.858 92.9525 75.8246 92.9525 77.9913C92.9525 80.158 92.5192 82.1246 91.6525 83.8913C90.7859 85.6246 89.6692 87.008 88.3025 88.0413C85.5359 90.1746 82.6692 91.2413 79.7025 91.2413H73.4525V96.8913C73.4525 97.658 73.4192 98.2413 73.3525 98.6413C73.3192 99.008 73.1692 99.4413 72.9025 99.9413C72.4359 100.841 71.1359 101.291 69.0025 101.291C66.6692 101.291 65.3025 100.675 64.9025 99.4413C64.7025 98.8746 64.6025 98.008 64.6025 96.8413V69.0913C64.6025 68.3246 64.6192 67.758 64.6525 67.3913C64.7192 66.9913 64.8859 66.5413 65.1525 66.0413C65.6192 65.1413 66.9192 64.6913 69.0525 64.6913H79.7525C82.6859 64.6913 85.5359 65.758 88.3025 67.8913C89.6692 68.9246 90.7859 70.3246 91.6525 72.0913ZM79.7525 82.3913C80.7525 82.3913 81.7359 82.0246 82.7025 81.2913C83.6692 80.558 84.1525 79.458 84.1525 77.9913C84.1525 76.5246 83.6692 75.4246 82.7025 74.6913C81.7359 73.9246 80.7359 73.5413 79.7025 73.5413H73.4525V82.3913H79.7525ZM113.194 67.2913L126.694 95.1913C127.261 96.3246 127.544 97.1746 127.544 97.7413C127.544 98.9413 126.577 100.025 124.644 100.991C123.511 101.558 122.611 101.841 121.944 101.841C121.311 101.841 120.777 101.691 120.344 101.391C119.944 101.091 119.644 100.775 119.444 100.441C119.277 100.108 119.027 99.608 118.694 98.9413L116.094 93.5413H102.244L99.6439 98.9413C99.3106 99.608 99.0439 100.091 98.8439 100.391C98.6773 100.691 98.3773 101.008 97.9439 101.341C97.5439 101.641 97.0106 101.791 96.3439 101.791C95.7106 101.791 94.8273 101.508 93.6939 100.941C91.7606 100.008 90.7939 98.9413 90.7939 97.7413C90.7939 97.1746 91.0773 96.3246 91.6439 95.1913L105.144 67.2413C105.511 66.4746 106.061 65.858 106.794 65.3913C107.561 64.9246 108.361 64.6913 109.194 64.6913C110.994 64.6913 112.327 65.558 113.194 67.2913ZM109.144 79.2913L105.844 86.1413H112.494L109.144 79.2913ZM158.326 95.1413C158.826 96.3413 159.076 97.208 159.076 97.7413C159.076 99.008 158.043 100.075 155.976 100.941C154.91 101.408 154.043 101.641 153.376 101.641C152.743 101.641 152.21 101.491 151.776 101.191C151.376 100.858 151.076 100.525 150.876 100.191C150.543 99.558 149.243 96.5413 146.976 91.1413L145.426 91.2413H139.126V96.8913C139.126 97.658 139.093 98.2413 139.026 98.6413C138.993 99.008 138.843 99.4413 138.576 99.9413C138.11 100.841 136.81 101.291 134.676 101.291C132.343 101.291 130.976 100.675 130.576 99.4413C130.376 98.8746 130.276 98.008 130.276 96.8413V69.0913C130.276 68.3246 130.293 67.758 130.326 67.3913C130.393 66.9913 130.56 66.5413 130.826 66.0413C131.293 65.1413 132.593 64.6913 134.726 64.6913H145.526C148.46 64.6913 151.31 65.758 154.076 67.8913C155.41 68.9246 156.51 70.3246 157.376 72.0913C158.243 73.858 158.676 75.8246 158.676 77.9913C158.676 81.758 157.426 84.858 154.926 87.2913C155.66 89.058 156.793 91.6746 158.326 95.1413ZM139.126 82.3913H145.526C146.493 82.3913 147.46 82.0246 148.426 81.2913C149.393 80.558 149.876 79.458 149.876 77.9913C149.876 76.5246 149.393 75.4246 148.426 74.6913C147.46 73.9246 146.46 73.5413 145.426 73.5413H139.126V82.3913ZM185.769 66.0413C186.103 65.508 186.586 65.1413 187.219 64.9413C187.853 64.7413 188.636 64.6413 189.569 64.6413C190.536 64.6413 191.303 64.7246 191.869 64.8913C192.436 65.058 192.869 65.258 193.169 65.4913C193.469 65.7246 193.686 66.0746 193.819 66.5413C194.019 67.108 194.119 67.9746 194.119 69.1413V84.2413C194.119 88.6413 192.753 92.6413 190.019 96.2413C188.686 97.9413 186.969 99.3246 184.869 100.391C182.769 101.425 180.436 101.941 177.869 101.941C175.336 101.941 173.019 101.408 170.919 100.341C168.853 99.2746 167.169 97.8746 165.869 96.1413C163.169 92.608 161.819 88.608 161.819 84.1413V69.0913C161.819 68.2913 161.836 67.708 161.869 67.3413C161.936 66.9413 162.103 66.4913 162.369 65.9913C162.636 65.4913 163.086 65.1413 163.719 64.9413C164.353 64.7413 165.203 64.6413 166.269 64.6413C167.336 64.6413 168.186 64.7413 168.819 64.9413C169.453 65.1413 169.886 65.4913 170.119 65.9913C170.519 66.758 170.719 67.808 170.719 69.1413V84.1413C170.719 86.1746 171.219 88.108 172.219 89.9413C172.719 90.8746 173.469 91.6246 174.469 92.1913C175.469 92.758 176.653 93.0413 178.019 93.0413C180.453 93.0413 182.269 92.1413 183.469 90.3413C184.669 88.5413 185.269 86.458 185.269 84.0913V68.7913C185.269 67.4913 185.436 66.5746 185.769 66.0413ZM220.999 91.7413L221.899 91.0913C223.032 90.4246 223.832 90.0913 224.299 90.0913C225.332 90.0913 226.449 91.0246 227.649 92.8913C228.382 94.058 228.749 94.9913 228.749 95.6913C228.749 96.3913 228.515 96.9746 228.049 97.4413C227.615 97.908 227.099 98.3246 226.499 98.6913C225.899 99.058 225.315 99.408 224.749 99.7413C224.215 100.075 223.099 100.508 221.399 101.041C219.699 101.575 218.049 101.841 216.449 101.841C214.882 101.841 213.282 101.641 211.649 101.241C210.049 100.808 208.382 100.108 206.649 99.1413C204.949 98.1413 203.415 96.9413 202.049 95.5413C200.682 94.108 199.549 92.2913 198.649 90.0913C197.782 87.858 197.349 85.4413 197.349 82.8413C197.349 80.2413 197.782 77.8913 198.649 75.7913C199.515 73.658 200.615 71.908 201.949 70.5413C203.315 69.1413 204.865 67.9746 206.599 67.0413C209.865 65.2413 213.149 64.3413 216.449 64.3413C218.015 64.3413 219.599 64.5913 221.199 65.0913C222.832 65.558 224.065 66.0413 224.899 66.5413L226.099 67.2413C226.699 67.608 227.165 67.908 227.499 68.1413C228.365 68.8413 228.799 69.6413 228.799 70.5413C228.799 71.408 228.449 72.3246 227.749 73.2913C226.449 75.0913 225.282 75.9913 224.249 75.9913C223.649 75.9913 222.799 75.6246 221.699 74.8913C220.299 73.758 218.432 73.1913 216.099 73.1913C213.932 73.1913 211.799 73.9413 209.699 75.4413C208.699 76.1746 207.865 77.208 207.199 78.5413C206.532 79.8746 206.199 81.3913 206.199 83.0913C206.199 84.758 206.532 86.258 207.199 87.5913C207.865 88.9246 208.715 89.9746 209.749 90.7413C211.782 92.208 213.899 92.9413 216.099 92.9413C217.132 92.9413 218.099 92.808 218.999 92.5413C219.932 92.2746 220.599 92.008 220.999 91.7413ZM254.684 66.0413C254.951 65.5413 255.401 65.1913 256.034 64.9913C256.668 64.7913 257.468 64.6913 258.434 64.6913C259.401 64.6913 260.168 64.7746 260.734 64.9413C261.301 65.108 261.734 65.308 262.034 65.5413C262.334 65.7746 262.568 66.108 262.734 66.5413C262.901 67.108 262.984 67.9746 262.984 69.1413V96.8913C262.984 97.658 262.951 98.2413 262.884 98.6413C262.851 99.008 262.701 99.4413 262.434 99.9413C261.968 100.841 260.668 101.291 258.534 101.291C256.201 101.291 254.834 100.675 254.434 99.4413C254.234 98.8746 254.134 98.008 254.134 96.8413V86.6913H240.884V96.8913C240.884 97.658 240.851 98.2413 240.784 98.6413C240.751 99.008 240.601 99.4413 240.334 99.9413C239.868 100.841 238.568 101.291 236.434 101.291C234.101 101.291 232.734 100.675 232.334 99.4413C232.134 98.8746 232.034 98.008 232.034 96.8413V69.0913C232.034 68.3246 232.051 67.758 232.084 67.3913C232.151 66.9913 232.318 66.5413 232.584 66.0413C233.051 65.1413 234.351 64.6913 236.484 64.6913C238.818 64.6913 240.201 65.308 240.634 66.5413C240.801 67.108 240.884 67.9746 240.884 69.1413V79.3413H254.134V69.0913C254.134 68.3246 254.151 67.758 254.184 67.3913C254.251 66.9913 254.418 66.5413 254.684 66.0413ZM266.995 69.0913C266.995 68.3246 267.012 67.758 267.045 67.3913C267.112 66.9913 267.278 66.5413 267.545 66.0413C268.012 65.1413 269.312 64.6913 271.445 64.6913C273.778 64.6913 275.162 65.308 275.595 66.5413C275.762 67.108 275.845 67.9746 275.845 69.1413V96.9413C275.845 97.7413 275.812 98.3246 275.745 98.6913C275.712 99.058 275.562 99.4913 275.295 99.9913C274.828 100.891 273.528 101.341 271.395 101.341C269.062 101.341 267.695 100.708 267.295 99.4413C267.095 98.908 266.995 98.058 266.995 96.8913V69.0913ZM318.787 66.0913C319.054 66.5913 319.204 67.0413 319.237 67.4413C319.304 67.8413 319.337 68.4246 319.337 69.1913V96.9413C319.337 99.2413 318.704 100.591 317.437 100.991C316.804 101.191 316.004 101.291 315.037 101.291C314.07 101.291 313.304 101.208 312.737 101.041C312.17 100.875 311.737 100.675 311.437 100.441C311.137 100.208 310.904 99.8746 310.737 99.4413C310.57 98.8746 310.487 98.008 310.487 96.8413V80.0913C309.654 81.1246 308.437 82.7746 306.837 85.0413C305.237 87.2746 304.22 88.6746 303.787 89.2413C303.354 89.808 303.054 90.208 302.887 90.4413C302.72 90.6413 302.304 90.9413 301.637 91.3413C301.004 91.708 300.304 91.8913 299.537 91.8913C298.804 91.8913 298.12 91.7246 297.487 91.3913C296.887 91.0246 296.454 90.6746 296.187 90.3413L295.787 89.7913C295.12 88.958 293.804 87.1913 291.837 84.4913C289.87 81.758 288.804 80.2913 288.637 80.0913V96.9413C288.637 97.708 288.604 98.2913 288.537 98.6913C288.504 99.058 288.354 99.4746 288.087 99.9413C287.587 100.841 286.287 101.291 284.187 101.291C282.154 101.291 280.887 100.841 280.387 99.9413C280.12 99.4746 279.954 99.0413 279.887 98.6413C279.854 98.2413 279.837 97.6413 279.837 96.8413V69.0913C279.837 68.3246 279.854 67.758 279.887 67.3913C279.954 66.9913 280.12 66.5413 280.387 66.0413C280.887 65.1746 282.187 64.7413 284.287 64.7413C285.187 64.7413 285.954 64.858 286.587 65.0913C287.254 65.2913 287.687 65.508 287.887 65.7413L288.187 66.0413L299.537 80.9413C305.204 73.4413 308.987 68.4913 310.887 66.0913C311.454 65.1913 312.787 64.7413 314.887 64.7413C317.02 64.7413 318.32 65.1913 318.787 66.0913ZM344.493 67.2913L357.993 95.1913C358.559 96.3246 358.843 97.1746 358.843 97.7413C358.843 98.9413 357.876 100.025 355.943 100.991C354.809 101.558 353.909 101.841 353.243 101.841C352.609 101.841 352.076 101.691 351.643 101.391C351.243 101.091 350.943 100.775 350.743 100.441C350.576 100.108 350.326 99.608 349.993 98.9413L347.393 93.5413H333.543L330.943 98.9413C330.609 99.608 330.343 100.091 330.143 100.391C329.976 100.691 329.676 101.008 329.243 101.341C328.843 101.641 328.309 101.791 327.643 101.791C327.009 101.791 326.126 101.508 324.993 100.941C323.059 100.008 322.093 98.9413 322.093 97.7413C322.093 97.1746 322.376 96.3246 322.943 95.1913L336.443 67.2413C336.809 66.4746 337.359 65.858 338.093 65.3913C338.859 64.9246 339.659 64.6913 340.493 64.6913C342.293 64.6913 343.626 65.558 344.493 67.2913ZM340.443 79.2913L337.143 86.1413H343.793L340.443 79.2913ZM389.625 95.1413C390.125 96.3413 390.375 97.208 390.375 97.7413C390.375 99.008 389.342 100.075 387.275 100.941C386.209 101.408 385.342 101.641 384.675 101.641C384.042 101.641 383.509 101.491 383.075 101.191C382.675 100.858 382.375 100.525 382.175 100.191C381.842 99.558 380.542 96.5413 378.275 91.1413L376.725 91.2413H370.425V96.8913C370.425 97.658 370.392 98.2413 370.325 98.6413C370.292 99.008 370.142 99.4413 369.875 99.9413C369.409 100.841 368.109 101.291 365.975 101.291C363.642 101.291 362.275 100.675 361.875 99.4413C361.675 98.8746 361.575 98.008 361.575 96.8413V69.0913C361.575 68.3246 361.592 67.758 361.625 67.3913C361.692 66.9913 361.859 66.5413 362.125 66.0413C362.592 65.1413 363.892 64.6913 366.025 64.6913H376.825C379.759 64.6913 382.609 65.758 385.375 67.8913C386.709 68.9246 387.809 70.3246 388.675 72.0913C389.542 73.858 389.975 75.8246 389.975 77.9913C389.975 81.758 388.725 84.858 386.225 87.2913C386.959 89.058 388.092 91.6746 389.625 95.1413ZM370.425 82.3913H376.825C377.792 82.3913 378.759 82.0246 379.725 81.2913C380.692 80.558 381.175 79.458 381.175 77.9913C381.175 76.5246 380.692 75.4246 379.725 74.6913C378.759 73.9246 377.759 73.5413 376.725 73.5413H370.425V82.3913ZM417.068 66.0413C417.401 65.508 417.885 65.1413 418.518 64.9413C419.151 64.7413 419.935 64.6413 420.868 64.6413C421.835 64.6413 422.601 64.7246 423.168 64.8913C423.735 65.058 424.168 65.258 424.468 65.4913C424.768 65.7246 424.985 66.0746 425.118 66.5413C425.318 67.108 425.418 67.9746 425.418 69.1413V84.2413C425.418 88.6413 424.051 92.6413 421.318 96.2413C419.985 97.9413 418.268 99.3246 416.168 100.391C414.068 101.425 411.735 101.941 409.168 101.941C406.635 101.941 404.318 101.408 402.218 100.341C400.151 99.2746 398.468 97.8746 397.168 96.1413C394.468 92.608 393.118 88.608 393.118 84.1413V69.0913C393.118 68.2913 393.135 67.708 393.168 67.3413C393.235 66.9413 393.401 66.4913 393.668 65.9913C393.935 65.4913 394.385 65.1413 395.018 64.9413C395.651 64.7413 396.501 64.6413 397.568 64.6413C398.635 64.6413 399.485 64.7413 400.118 64.9413C400.751 65.1413 401.185 65.4913 401.418 65.9913C401.818 66.758 402.018 67.808 402.018 69.1413V84.1413C402.018 86.1746 402.518 88.108 403.518 89.9413C404.018 90.8746 404.768 91.6246 405.768 92.1913C406.768 92.758 407.951 93.0413 409.318 93.0413C411.751 93.0413 413.568 92.1413 414.768 90.3413C415.968 88.5413 416.568 86.458 416.568 84.0913V68.7913C416.568 67.4913 416.735 66.5746 417.068 66.0413Z" fill="#333333"/>
<path d="M46.9319 31.9173L45.0839 31.8733C45.1059 32.1373 45.0619 32.5333 45.0399 32.9293C44.9959 33.4133 44.9299 33.9853 44.8639 34.6233C44.3579 34.6453 43.8739 34.6453 43.3679 34.6453C42.4219 34.6453 40.5079 34.4913 39.7379 34.3593L39.7819 36.0093C40.6839 36.0753 42.3999 36.1633 43.3459 36.1633C43.7859 36.1633 44.2259 36.1633 44.6879 36.1413C44.5999 37.1753 44.4899 38.2753 44.4459 39.3753C41.4099 40.7833 38.9459 43.6653 38.9459 46.5033C38.9459 48.3733 40.0899 49.2753 41.5419 49.2753C42.7519 49.2753 44.0719 48.7913 45.2819 48.0653C45.3919 48.5053 45.5019 48.9233 45.6339 49.2973L47.2179 48.8133C47.0419 48.2633 46.8659 47.6693 46.6899 47.0313C48.5599 45.4473 50.3419 43.0053 51.5959 39.8813C53.6419 40.4753 54.7639 41.9713 54.7639 43.6433C54.7639 46.5033 52.2999 48.5493 48.3179 48.9673L49.2639 50.4413C54.3679 49.6273 56.4579 46.8993 56.4579 43.7313C56.4579 41.3113 54.8299 39.2873 52.0799 38.5613C52.0799 38.5173 52.1019 38.4953 52.1019 38.4733C52.2119 38.1213 52.4099 37.5273 52.5419 37.2193L50.8039 36.7793C50.7819 37.1533 50.6719 37.7253 50.5619 38.0553C50.5399 38.1433 50.5179 38.2093 50.4959 38.2753C50.2319 38.2533 49.9679 38.2533 49.6819 38.2533C48.5599 38.2533 47.2179 38.4513 45.9859 38.8033C46.0519 37.8793 46.1179 36.9553 46.2279 36.0973C48.9119 35.9653 51.8379 35.6573 54.1479 35.2613L54.1259 33.6333C51.8819 34.1613 49.1979 34.4473 46.4039 34.5793C46.4919 33.9413 46.5799 33.3693 46.6679 32.9073C46.7339 32.5993 46.8219 32.2033 46.9319 31.9173ZM45.9199 41.2453C45.9199 40.9373 45.9199 40.6513 45.9419 40.3433C46.9539 39.9693 48.2299 39.6393 49.6599 39.6393C49.7919 39.6393 49.9239 39.6393 50.0339 39.6393C49.1099 42.1033 47.7679 43.8853 46.2939 45.2713C46.0739 43.9953 45.9199 42.6533 45.9199 41.2453ZM40.6179 46.2173C40.6179 44.4133 42.2459 42.2353 44.3799 41.0253C44.3799 41.1573 44.3799 41.2893 44.3799 41.4213C44.3799 43.0713 44.5999 44.8533 44.9079 46.4153C43.7859 47.2073 42.7299 47.5813 41.8719 47.5813C41.0359 47.5813 40.6179 47.1193 40.6179 46.2173ZM78.5239 41.6413C78.5239 37.1753 75.2459 33.5453 70.0979 33.5453C64.7299 33.5453 60.4839 37.7253 60.4839 42.4993C60.4839 46.1293 62.4419 48.3733 64.3999 48.3733C66.4459 48.3733 68.1839 46.0633 69.5259 41.5313C70.1419 39.4853 70.5599 37.2413 70.8459 35.1953C74.5859 35.5033 76.7199 38.2533 76.7199 41.5753C76.7199 45.3813 73.9479 47.4713 71.1319 48.1093C70.6259 48.2193 69.9439 48.3293 69.2399 48.3953L70.2739 50.0233C75.4879 49.3413 78.5239 46.2613 78.5239 41.6413ZM62.1999 42.3453C62.1999 39.3533 64.7959 35.7453 69.0199 35.2173C68.7779 37.2413 68.3379 39.3313 67.7879 41.1573C66.6659 44.8753 65.4999 46.3493 64.4659 46.3493C63.4759 46.3493 62.1999 45.1173 62.1999 42.3453ZM100.986 35.3933L99.5999 34.2713C99.2919 34.3813 98.7859 34.4473 98.1699 34.4473H85.0579C84.2879 34.4473 83.4299 34.3593 82.8139 34.2713V36.2513C83.2539 36.2073 84.1999 36.1193 85.0579 36.1193H97.9939C96.8939 38.0993 94.3639 41.3333 91.1299 43.7533C89.6339 42.4113 87.8299 40.9373 87.0159 40.3433L85.5859 41.5093C86.7519 42.3233 89.3039 44.5233 90.6239 45.8433C92.0099 47.2733 93.7699 49.2093 94.5839 50.3313L96.1899 49.0553C95.3099 47.9773 93.7479 46.3273 92.4279 45.0073C96.0579 42.2353 98.8519 38.6493 100.436 36.0753C100.568 35.8773 100.766 35.6353 100.986 35.3933ZM107.542 33.2153L106.288 34.5573C107.916 35.6573 110.666 38.0113 111.766 39.1553L113.152 37.7693C111.92 36.5373 109.104 34.2493 107.542 33.2153ZM105.65 47.9553L106.816 49.7593C110.49 49.0773 113.262 47.7353 115.462 46.3493C118.784 44.2593 121.358 41.2673 122.854 38.5173L121.798 36.6473C120.522 39.3533 117.838 42.6093 114.45 44.7433C112.36 46.0413 109.5 47.3833 105.65 47.9553ZM141.114 32.0933L139.948 32.5993C140.542 33.4353 141.29 34.7553 141.73 35.6353L142.918 35.1073C142.456 34.2273 141.664 32.8853 141.114 32.0933ZM143.534 31.2133L142.368 31.7193C142.984 32.5333 143.71 33.7873 144.194 34.7333L145.36 34.2053C144.964 33.3913 144.106 32.0273 143.534 31.2133ZM135.284 32.2913H133.216C133.304 32.7973 133.37 33.6113 133.37 34.1173C133.37 34.8873 133.326 35.6353 133.282 36.3393H129.41C128.574 36.3393 127.672 36.2953 126.902 36.2293V38.0773C127.672 37.9893 128.574 37.9893 129.432 37.9893H133.128C132.534 42.5213 130.95 45.2713 128.772 47.2513C128.112 47.8893 127.21 48.5053 126.506 48.8793L128.112 50.1773C131.786 47.6473 134.074 44.3253 134.866 37.9893H141.026C141.026 40.3433 140.74 45.7553 139.904 47.4493C139.662 47.9773 139.266 48.1533 138.628 48.1533C137.704 48.1533 136.538 48.0653 135.35 47.9113L135.57 49.7373C136.714 49.8253 137.99 49.8913 139.112 49.8913C140.322 49.8913 141.026 49.4953 141.466 48.5493C142.456 46.4373 142.72 40.0353 142.808 37.9233C142.808 37.6373 142.852 37.2193 142.918 36.8453L141.686 36.2293C141.312 36.2953 140.872 36.3393 140.278 36.3393H135.042C135.086 35.6133 135.13 34.8653 135.152 34.0733C135.174 33.5453 135.218 32.7753 135.284 32.2913ZM166.524 41.6413C166.524 37.1753 163.246 33.5453 158.098 33.5453C152.73 33.5453 148.484 37.7253 148.484 42.4993C148.484 46.1293 150.442 48.3733 152.4 48.3733C154.446 48.3733 156.184 46.0633 157.526 41.5313C158.142 39.4853 158.56 37.2413 158.846 35.1953C162.586 35.5033 164.72 38.2533 164.72 41.5753C164.72 45.3813 161.948 47.4713 159.132 48.1093C158.626 48.2193 157.944 48.3293 157.24 48.3953L158.274 50.0233C163.488 49.3413 166.524 46.2613 166.524 41.6413ZM150.2 42.3453C150.2 39.3533 152.796 35.7453 157.02 35.2173C156.778 37.2413 156.338 39.3313 155.788 41.1573C154.666 44.8753 153.5 46.3493 152.466 46.3493C151.476 46.3493 150.2 45.1173 150.2 42.3453ZM179.614 33.2373H175.61V31.0153H174.026V33.2373H169.978V34.6013H179.614V33.2373ZM177.084 38.1213C177.502 37.3293 177.942 36.0973 178.36 34.9973L176.864 34.6453C176.666 35.5913 176.16 36.9553 175.764 37.8353L177.084 38.1213ZM173.52 37.8133C173.41 36.9773 173.036 35.6793 172.574 34.6893L171.298 35.0193C171.716 36.0093 172.068 37.3293 172.156 38.1873L173.52 37.8133ZM179.086 46.6353C178.58 46.1733 176.446 44.4353 175.61 43.8193V43.2913H179.702V41.9053H175.61V39.5953H179.878V38.2093H169.67V39.5953H174.026V41.9053H169.736V43.2913H173.674C172.574 45.2273 170.836 47.2073 169.252 48.2413C169.604 48.5273 170.088 49.0553 170.352 49.4293C171.584 48.4613 172.948 46.8993 174.026 45.2053V50.9693H175.61V45.3813C176.534 46.2173 177.656 47.2953 178.118 47.8453L179.086 46.6353ZM189.58 38.2973H182.232V34.3813C184.674 33.8973 187.424 33.2373 189.294 32.4013L187.974 31.1913C186.566 31.8953 184.102 32.5993 181.858 33.0833L180.67 32.7093V40.3653C180.67 43.4453 180.362 47.2513 177.568 49.9793C177.942 50.1993 178.536 50.7713 178.734 51.1233C181.814 48.0653 182.232 43.6653 182.232 40.3873V39.8373H185.51V50.8813H187.116V39.8373H189.58V38.2973ZM197.852 33.8973H201.966V32.2913H192.11V33.8973H196.202V39.5513H191.516V41.1573H196.202V50.9693H197.852V41.1573H202.604V39.5513H197.852V33.8973ZM205.728 33.5233H204.1V45.6673H205.728V33.5233ZM208.896 31.3453V48.7913C208.896 49.2093 208.72 49.3413 208.302 49.3633C207.84 49.3633 206.41 49.3853 204.826 49.3193C205.09 49.7813 205.354 50.5733 205.442 51.0133C207.51 51.0353 208.764 50.9913 209.512 50.7053C210.238 50.4413 210.546 49.9353 210.546 48.7913V31.3453H208.896ZM218.554 50.5733L220.05 49.2973C218.686 47.6913 216.706 45.6893 215.122 44.4133L213.692 45.6673C215.254 46.9433 217.146 48.8353 218.554 50.5733ZM252.456 41.9493V48.0433H246.274V40.5413H253.248V33.0173H251.554V38.9573H246.274V31.0593H244.602V38.9573H239.564V33.0173H237.936V40.5413H244.602V48.0433H238.728V41.9493H237.1V51.0133H238.728V49.6493H252.456V50.9693H254.128V41.9493H252.456ZM258.418 34.7333L258.616 36.6473C260.992 36.1413 266.602 35.6133 268.956 35.3493C266.932 36.5593 264.842 39.3533 264.842 42.7853C264.842 47.6913 269.484 49.8693 273.554 50.0233L274.192 48.1973C270.606 48.0653 266.602 46.7013 266.602 42.3893C266.602 39.7933 268.516 36.4493 271.64 35.4373C272.762 35.1073 274.698 35.0853 275.952 35.0853V33.3253C274.478 33.3913 272.41 33.5013 270.012 33.7213C265.964 34.0513 261.806 34.4693 260.376 34.6233C259.958 34.6673 259.254 34.7113 258.418 34.7333ZM286.6 47.0313C286.6 46.2613 287.37 45.6233 288.36 45.6233C290.032 45.6233 291.132 46.8773 291.308 48.6153C290.758 48.7033 290.164 48.7473 289.526 48.7473C287.81 48.7473 286.6 48.0873 286.6 47.0313ZM283.784 33.1273L283.85 34.9533C284.312 34.8873 284.818 34.8433 285.302 34.8213C286.468 34.7553 290.868 34.5573 292.034 34.5133C290.912 35.5033 288.162 37.8133 286.93 38.8253C285.654 39.9033 282.838 42.2573 281.012 43.7533L282.266 45.0513C285.06 42.2133 287.018 40.6513 290.692 40.6513C293.552 40.6513 295.62 42.2793 295.62 44.4353C295.62 46.2393 294.63 47.5153 292.87 48.1973C292.606 46.1073 291.132 44.3033 288.382 44.3033C286.336 44.3033 284.994 45.6453 284.994 47.1633C284.994 48.9893 286.82 50.2873 289.812 50.2873C294.476 50.2873 297.38 47.9993 297.38 44.4573C297.38 41.4873 294.762 39.2873 291.11 39.2873C290.12 39.2873 289.064 39.3973 288.052 39.7493C289.768 38.3193 292.76 35.7673 293.86 34.9313C294.256 34.6013 294.696 34.3153 295.092 34.0293L294.08 32.7533C293.86 32.8193 293.552 32.8853 292.892 32.9293C291.726 33.0393 286.49 33.2153 285.346 33.2153C284.906 33.2153 284.29 33.1933 283.784 33.1273ZM310.47 31.8733L308.534 31.6973C308.49 32.8853 308.182 34.2713 307.852 35.5033C306.994 35.5693 306.158 35.6133 305.366 35.6133C304.442 35.6133 303.496 35.5693 302.682 35.4593L302.792 37.1093C303.628 37.1533 304.552 37.1753 305.366 37.1753C306.004 37.1753 306.664 37.1533 307.324 37.1093C306.312 39.6833 304.442 43.2033 302.616 45.3373L304.31 46.2173C306.07 43.8413 308.028 40.0353 309.106 36.9333C310.558 36.7353 311.944 36.4493 313.11 36.1193L313.066 34.4693C311.944 34.8433 310.756 35.1073 309.612 35.2833C309.964 34.0073 310.272 32.6653 310.47 31.8733ZM309.26 47.1413C309.26 46.1293 310.36 45.3813 311.966 45.3813C312.758 45.3813 313.528 45.4913 314.232 45.7113C314.254 46.0853 314.254 46.4153 314.254 46.7013C314.254 47.9113 313.638 48.8793 311.812 48.8793C310.096 48.8793 309.26 48.1753 309.26 47.1413ZM315.662 38.6713H313.946C313.99 40.2333 314.1 42.4113 314.188 44.2153C313.506 44.0613 312.78 43.9953 312.032 43.9953C309.546 43.9953 307.632 45.2713 307.632 47.2953C307.632 49.4733 309.612 50.4633 312.032 50.4633C314.76 50.4633 315.882 49.0333 315.882 47.2733C315.882 47.0093 315.882 46.7013 315.86 46.3493C317.29 47.0533 318.478 48.0433 319.424 48.8793L320.37 47.3833C319.226 46.4153 317.686 45.3373 315.794 44.6553C315.75 43.2913 315.662 41.8613 315.64 41.0473C315.618 40.2553 315.618 39.5733 315.662 38.6713ZM320.062 39.2653L321.052 37.8133C320.018 37.0213 317.51 35.5913 315.926 34.8873L315.024 36.2293C316.498 36.8893 318.874 38.2533 320.062 39.2653ZM329.918 32.0933L329.478 33.7653C331.15 34.2273 335.924 35.1953 338.014 35.4813L338.432 33.7873C336.496 33.6113 331.81 32.6873 329.918 32.0933ZM329.434 36.0973L327.586 35.8553C327.454 38.1653 326.904 42.7853 326.464 44.7873L328.092 45.1833C328.224 44.8313 328.422 44.4573 328.752 44.0833C330.292 42.2353 332.668 41.1353 335.572 41.1353C337.816 41.1353 339.444 42.3893 339.444 44.1493C339.444 47.1633 336.056 49.1653 329.104 48.3073L329.632 50.1113C337.816 50.7933 341.292 48.1313 341.292 44.1933C341.292 41.6193 339.048 39.5953 335.682 39.5953C333.042 39.5953 330.622 40.4313 328.51 42.2793C328.752 40.8713 329.126 37.5933 329.434 36.0973ZM358.694 36.5373H362.522C362.126 39.2433 361.532 41.5533 360.608 43.4893C359.728 41.4433 359.112 39.0673 358.694 36.5593V36.5373ZM350.818 36.8013V34.6233H353.568C353.128 35.3933 352.644 36.1193 352.116 36.8013H350.818ZM365.602 36.5373V34.9973H359.178C359.53 33.7873 359.816 32.4893 360.058 31.1913L358.408 30.9273C357.792 34.5573 356.67 38.0773 354.998 40.3653L354.206 39.7933L353.92 39.8813H351.522C352.006 39.3533 352.468 38.8253 352.93 38.2533H356.12V36.8013H354.008C355.02 35.3053 355.9 33.6553 356.626 31.8733L355.086 31.4333C354.646 32.5553 354.14 33.6113 353.568 34.6013V33.2373H350.818V30.9273H349.322V33.2373H346.418V34.6233H349.322V36.8013H345.538V38.2533H350.928C350.4 38.8253 349.872 39.3753 349.278 39.8813H347.32V41.1793H347.672C346.858 41.7733 346 42.3013 345.098 42.7633C345.428 43.0713 346.022 43.6653 346.264 43.9953C347.65 43.2033 348.97 42.2573 350.18 41.1793H352.71C352.182 41.7513 351.544 42.3453 350.906 42.8073H350.18V44.7653C348.376 44.9413 346.726 45.1173 345.428 45.2273L345.626 46.7013C346.924 46.5693 348.486 46.4153 350.18 46.2173V49.2753C350.18 49.5173 350.092 49.5833 349.806 49.6053C349.52 49.6053 348.574 49.6053 347.474 49.5833C347.716 49.9793 347.936 50.5953 348.002 51.0133C349.41 51.0133 350.334 50.9913 350.95 50.7713C351.544 50.5293 351.72 50.1113 351.72 49.2753V46.0633L356.208 45.5573V44.1493C354.712 44.3033 353.194 44.4573 351.72 44.6113V43.7093C352.864 42.8953 354.096 41.7733 354.998 40.6733C355.372 40.9373 355.922 41.4213 356.164 41.6853C356.714 40.9373 357.22 40.0793 357.66 39.1113C358.144 41.3553 358.804 43.4233 359.64 45.2053C358.386 47.0973 356.714 48.5493 354.426 49.6273C354.756 49.9573 355.218 50.7053 355.394 51.0793C357.55 49.9573 359.222 48.5713 360.52 46.8333C361.598 48.6153 362.94 50.0453 364.634 51.0353C364.854 50.5953 365.382 49.9573 365.778 49.6493C363.996 48.7253 362.588 47.2073 361.51 45.3153C362.852 42.9613 363.666 40.0573 364.216 36.5373H365.602ZM373.412 31.9833L373.126 33.5893C375.81 34.0733 379.66 34.5793 381.86 34.7773L382.102 33.1493C380.012 33.0173 375.81 32.5113 373.412 31.9833ZM382.542 38.2753L381.486 37.0873C381.288 37.1753 380.804 37.2853 380.43 37.3293C378.78 37.5273 373.654 37.8793 372.4 37.9013C371.696 37.9233 371.036 37.9013 370.53 37.8573L370.684 39.7933C371.168 39.7053 371.74 39.6393 372.466 39.5733C373.808 39.4633 377.504 39.1553 379.242 39.0453C377.064 41.2233 371.08 47.2073 370.2 48.1093C369.76 48.5273 369.364 48.8573 369.1 49.0993L370.772 50.2653C372.004 48.6813 374.402 46.1513 375.238 45.3593C375.744 44.8753 376.25 44.5673 376.866 44.5673C377.46 44.5673 377.944 44.9633 378.208 45.7333C378.406 46.3713 378.736 47.6693 378.956 48.3293C379.418 49.7813 380.518 50.1993 382.278 50.1993C383.466 50.1993 385.49 50.0233 386.414 49.8693L386.524 48.0213C385.49 48.2853 383.818 48.4613 382.366 48.4613C381.244 48.4613 380.716 48.1093 380.452 47.2733C380.232 46.5473 379.924 45.4473 379.726 44.8093C379.418 43.9073 378.912 43.3133 378.054 43.2253C377.812 43.1813 377.416 43.1593 377.196 43.1813C378.01 42.3453 380.496 40.0353 381.332 39.2653C381.596 39.0233 382.124 38.5613 382.542 38.2753ZM389.322 34.7333L389.52 36.6473C391.896 36.1413 397.506 35.6133 399.86 35.3493C397.836 36.5593 395.746 39.3533 395.746 42.7853C395.746 47.6913 400.388 49.8693 404.458 50.0233L405.096 48.1973C401.51 48.0653 397.506 46.7013 397.506 42.3893C397.506 39.7933 399.42 36.4493 402.544 35.4373C403.666 35.1073 405.602 35.0853 406.856 35.0853V33.3253C405.382 33.3913 403.314 33.5013 400.916 33.7213C396.868 34.0513 392.71 34.4693 391.28 34.6233C390.862 34.6673 390.158 34.7113 389.322 34.7333ZM413.984 46.8113C413.984 45.6013 415.282 44.8093 417.548 44.8093C418.274 44.8093 419 44.8753 419.704 45.0293C419.704 45.6013 419.726 46.0853 419.726 46.4373C419.726 47.9553 418.934 48.7033 417.328 48.7033C415.216 48.7033 413.984 48.0213 413.984 46.8113ZM421.354 32.0713H419.264C419.374 32.4673 419.44 33.4573 419.44 34.2493C419.462 35.1953 419.462 36.9993 419.462 38.2753C419.462 39.5953 419.55 41.6193 419.638 43.4013C419.022 43.3133 418.406 43.2693 417.768 43.2693C413.962 43.2693 412.224 44.8973 412.224 46.8773C412.224 49.3853 414.468 50.3533 417.504 50.3533C420.43 50.3533 421.53 48.8133 421.53 47.0093C421.53 46.6133 421.508 46.1073 421.486 45.5353C423.774 46.3493 425.798 47.7573 427.206 49.1873L428.262 47.5153C426.678 46.0853 424.236 44.5453 421.42 43.7753C421.31 41.8613 421.2 39.7273 421.2 38.2753C421.2 38.2093 421.2 38.1653 421.2 38.0993C423.004 38.0773 425.82 37.9453 427.778 37.7473L427.712 36.0973C425.732 36.3393 422.938 36.4493 421.2 36.4933C421.2 35.6353 421.178 34.8433 421.2 34.2493C421.222 33.5893 421.288 32.5333 421.354 32.0713ZM441.726 44.0173H443.178L443.618 35.4813L443.662 32.8853H441.242L441.286 35.4813L441.726 44.0173ZM442.452 49.4513C443.222 49.4513 443.86 48.8793 443.86 47.9993C443.86 47.1193 443.222 46.5253 442.452 46.5253C441.682 46.5253 441.044 47.1193 441.044 47.9993C441.044 48.8793 441.66 49.4513 442.452 49.4513Z" fill="#333333"/>
</svg>
