<?xml version="1.0" encoding="utf-8"?>
<!-- Generator: Adobe Illustrator 21.1.0, SVG Export Plug-In . SVG Version: 6.00 Build 0)  -->
<svg version="1.1" id="_x30_" xmlns="http://www.w3.org/2000/svg" xmlns:xlink="http://www.w3.org/1999/xlink" x="0px" y="0px"
	 viewBox="0 0 128 112" style="enable-background:new 0 0 128 112;" xml:space="preserve">
<style type="text/css">
	.st0{fill:#FFFFFF;}
	.st1{fill:#FFF000;}
	.st2{fill:#110806;}
</style>
<g>
	<rect class="st0" width="128" height="112"/>
	<ellipse class="st1" cx="24.914" cy="16.615" rx="14.33" ry="14.342"/>
	<path class="st1" d="M128,112c-7.914,0-14.33-6.421-14.33-14.342s6.416-14.342,14.33-14.342V112z"/>
	<ellipse class="st1" cx="106.217" cy="26.23" rx="11.82" ry="11.83"/>
	<ellipse class="st1" cx="55.413" cy="77.181" rx="18.75" ry="18.766"/>
	<ellipse class="st1" cx="55.489" cy="35.052" rx="7.816" ry="7.823"/>
	<g>
		<circle class="st2" cx="26.098" cy="50.03" r="1.102"/>
		<circle class="st2" cx="31.314" cy="50.03" r="1.102"/>
		<circle class="st2" cx="36.53" cy="50.03" r="1.102"/>
		<circle class="st2" cx="41.746" cy="50.03" r="1.102"/>
		<circle class="st2" cx="46.962" cy="50.03" r="1.102"/>
		<circle class="st2" cx="52.178" cy="50.03" r="1.102"/>
		<circle class="st2" cx="28.706" cy="53.89" r="1.102"/>
		<circle class="st2" cx="33.922" cy="53.89" r="1.102"/>
		<circle class="st2" cx="39.138" cy="53.89" r="1.102"/>
		<circle class="st2" cx="44.354" cy="53.89" r="1.102"/>
		<circle class="st2" cx="49.57" cy="53.89" r="1.102"/>
		<circle class="st2" cx="26.098" cy="57.75" r="1.102"/>
		<circle class="st2" cx="31.314" cy="57.75" r="1.102"/>
		<circle class="st2" cx="36.53" cy="57.75" r="1.102"/>
		<circle class="st2" cx="41.746" cy="57.75" r="1.102"/>
		<circle class="st2" cx="46.962" cy="57.75" r="1.102"/>
		<circle class="st2" cx="52.178" cy="57.75" r="1.102"/>
		<circle class="st2" cx="28.706" cy="61.61" r="1.102"/>
		<circle class="st2" cx="33.922" cy="61.61" r="1.102"/>
		<circle class="st2" cx="39.138" cy="61.61" r="1.102"/>
		<circle class="st2" cx="44.354" cy="61.61" r="1.102"/>
		<circle class="st2" cx="49.57" cy="61.61" r="1.102"/>
		<circle class="st2" cx="26.098" cy="65.47" r="1.102"/>
		<circle class="st2" cx="31.314" cy="65.47" r="1.102"/>
		<circle class="st2" cx="36.53" cy="65.47" r="1.102"/>
		<circle class="st2" cx="41.746" cy="65.47" r="1.102"/>
		<circle class="st2" cx="46.962" cy="65.47" r="1.102"/>
		<circle class="st2" cx="52.178" cy="65.47" r="1.102"/>
		<circle class="st2" cx="28.706" cy="69.33" r="1.102"/>
		<circle class="st2" cx="33.922" cy="69.33" r="1.102"/>
		<circle class="st2" cx="39.138" cy="69.33" r="1.102"/>
		<circle class="st2" cx="44.354" cy="69.33" r="1.102"/>
		<circle class="st2" cx="49.57" cy="69.33" r="1.102"/>
		<circle class="st2" cx="26.098" cy="73.19" r="1.102"/>
		<circle class="st2" cx="31.314" cy="73.19" r="1.102"/>
		<circle class="st2" cx="36.53" cy="73.19" r="1.102"/>
		<circle class="st2" cx="41.746" cy="73.19" r="1.102"/>
		<circle class="st2" cx="46.962" cy="73.19" r="1.102"/>
		<circle class="st2" cx="52.178" cy="73.19" r="1.102"/>
		<circle class="st2" cx="26.098" cy="106.03" r="1.102"/>
		<circle class="st2" cx="31.314" cy="106.03" r="1.102"/>
		<circle class="st2" cx="36.53" cy="106.03" r="1.102"/>
		<circle class="st2" cx="41.746" cy="106.03" r="1.102"/>
		<circle class="st2" cx="46.962" cy="106.03" r="1.102"/>
		<circle class="st2" cx="52.178" cy="106.03" r="1.102"/>
		<circle class="st2" cx="28.706" cy="109.89" r="1.102"/>
		<circle class="st2" cx="33.922" cy="109.89" r="1.102"/>
		<circle class="st2" cx="39.138" cy="109.89" r="1.102"/>
		<circle class="st2" cx="44.354" cy="109.89" r="1.102"/>
		<circle class="st2" cx="49.57" cy="109.89" r="1.102"/>
		<rect y="77.047" class="st2" width="22.242" height="1.493"/>
		<rect y="81.868" class="st2" width="22.242" height="1.493"/>
		<rect y="86.69" class="st2" width="22.242" height="1.492"/>
		<rect y="91.511" class="st2" width="22.242" height="1.492"/>
		<rect y="96.332" class="st2" width="22.242" height="1.493"/>
		<rect y="101.153" class="st2" width="22.242" height="1.493"/>
		<circle class="st2" cx="90.098" cy="50.03" r="1.102"/>
		<circle class="st2" cx="95.314" cy="50.03" r="1.102"/>
		<circle class="st2" cx="100.53" cy="50.03" r="1.102"/>
		<circle class="st2" cx="105.746" cy="50.03" r="1.102"/>
		<circle class="st2" cx="110.962" cy="50.03" r="1.102"/>
		<circle class="st2" cx="116.178" cy="50.03" r="1.102"/>
		<circle class="st2" cx="92.706" cy="53.89" r="1.102"/>
		<circle class="st2" cx="97.922" cy="53.89" r="1.102"/>
		<circle class="st2" cx="103.138" cy="53.89" r="1.102"/>
		<circle class="st2" cx="108.354" cy="53.89" r="1.102"/>
		<circle class="st2" cx="113.57" cy="53.89" r="1.102"/>
		<circle class="st2" cx="90.098" cy="57.75" r="1.102"/>
		<circle class="st2" cx="95.314" cy="57.75" r="1.102"/>
		<circle class="st2" cx="100.53" cy="57.75" r="1.102"/>
		<circle class="st2" cx="105.746" cy="57.75" r="1.102"/>
		<circle class="st2" cx="110.962" cy="57.75" r="1.102"/>
		<circle class="st2" cx="116.178" cy="57.75" r="1.102"/>
		<circle class="st2" cx="92.706" cy="61.61" r="1.102"/>
		<circle class="st2" cx="97.922" cy="61.61" r="1.102"/>
		<circle class="st2" cx="103.138" cy="61.61" r="1.102"/>
		<circle class="st2" cx="108.354" cy="61.61" r="1.102"/>
		<circle class="st2" cx="113.57" cy="61.61" r="1.102"/>
		<circle class="st2" cx="90.098" cy="65.47" r="1.102"/>
		<circle class="st2" cx="95.314" cy="65.47" r="1.102"/>
		<circle class="st2" cx="100.53" cy="65.47" r="1.102"/>
		<circle class="st2" cx="105.746" cy="65.47" r="1.102"/>
		<circle class="st2" cx="110.962" cy="65.47" r="1.102"/>
		<circle class="st2" cx="116.178" cy="65.47" r="1.102"/>
		<circle class="st2" cx="92.706" cy="69.33" r="1.102"/>
		<circle class="st2" cx="97.922" cy="69.33" r="1.102"/>
		<circle class="st2" cx="103.138" cy="69.33" r="1.102"/>
		<circle class="st2" cx="108.354" cy="69.33" r="1.102"/>
		<circle class="st2" cx="113.57" cy="69.33" r="1.102"/>
		<circle class="st2" cx="90.098" cy="73.19" r="1.102"/>
		<circle class="st2" cx="95.314" cy="73.19" r="1.102"/>
		<circle class="st2" cx="100.53" cy="73.19" r="1.102"/>
		<circle class="st2" cx="105.746" cy="73.19" r="1.102"/>
		<circle class="st2" cx="110.962" cy="73.19" r="1.102"/>
		<circle class="st2" cx="116.178" cy="73.19" r="1.102"/>
		<circle class="st2" cx="90.098" cy="106.03" r="1.102"/>
		<circle class="st2" cx="95.314" cy="106.03" r="1.102"/>
		<circle class="st2" cx="100.53" cy="106.03" r="1.102"/>
		<circle class="st2" cx="105.746" cy="106.03" r="1.102"/>
		<circle class="st2" cx="110.962" cy="106.03" r="1.102"/>
		<circle class="st2" cx="116.178" cy="106.03" r="1.102"/>
		<circle class="st2" cx="92.706" cy="109.89" r="1.102"/>
		<circle class="st2" cx="97.922" cy="109.89" r="1.102"/>
		<circle class="st2" cx="103.138" cy="109.89" r="1.102"/>
		<circle class="st2" cx="108.354" cy="109.89" r="1.102"/>
		<circle class="st2" cx="113.57" cy="109.89" r="1.102"/>
		<rect x="58.027" y="77.047" class="st2" width="28.215" height="1.493"/>
		<rect x="58.027" y="81.868" class="st2" width="28.215" height="1.492"/>
		<rect x="58.027" y="86.689" class="st2" width="28.215" height="1.493"/>
		<rect x="58.027" y="91.511" class="st2" width="28.215" height="1.492"/>
		<rect x="58.027" y="96.332" class="st2" width="28.215" height="1.493"/>
		<rect x="58.027" y="101.153" class="st2" width="28.215" height="1.493"/>
		<circle class="st2" cx="26.098" cy="1.75" r="1.102"/>
		<circle class="st2" cx="31.314" cy="1.75" r="1.102"/>
		<circle class="st2" cx="36.53" cy="1.75" r="1.102"/>
		<circle class="st2" cx="41.746" cy="1.75" r="1.102"/>
		<circle class="st2" cx="46.962" cy="1.75" r="1.102"/>
		<circle class="st2" cx="52.178" cy="1.75" r="1.102"/>
		<circle class="st2" cx="28.706" cy="5.61" r="1.102"/>
		<circle class="st2" cx="33.922" cy="5.61" r="1.102"/>
		<circle class="st2" cx="39.138" cy="5.61" r="1.102"/>
		<circle class="st2" cx="44.354" cy="5.61" r="1.102"/>
		<circle class="st2" cx="49.57" cy="5.61" r="1.102"/>
		<circle class="st2" cx="26.098" cy="9.47" r="1.102"/>
		<circle class="st2" cx="31.314" cy="9.47" r="1.102"/>
		<circle class="st2" cx="36.53" cy="9.47" r="1.102"/>
		<circle class="st2" cx="41.746" cy="9.47" r="1.102"/>
		<circle class="st2" cx="46.962" cy="9.47" r="1.102"/>
		<circle class="st2" cx="52.178" cy="9.47" r="1.102"/>
		<circle class="st2" cx="28.706" cy="13.33" r="1.102"/>
		<circle class="st2" cx="33.922" cy="13.33" r="1.102"/>
		<circle class="st2" cx="39.138" cy="13.33" r="1.102"/>
		<circle class="st2" cx="44.354" cy="13.33" r="1.102"/>
		<circle class="st2" cx="49.57" cy="13.33" r="1.102"/>
		<circle class="st2" cx="26.098" cy="17.19" r="1.102"/>
		<circle class="st2" cx="31.314" cy="17.19" r="1.102"/>
		<circle class="st2" cx="36.53" cy="17.19" r="1.102"/>
		<circle class="st2" cx="41.746" cy="17.19" r="1.102"/>
		<circle class="st2" cx="46.962" cy="17.19" r="1.102"/>
		<circle class="st2" cx="52.178" cy="17.19" r="1.102"/>
		<rect y="21.047" class="st2" width="22.242" height="1.493"/>
		<rect y="25.868" class="st2" width="22.242" height="1.493"/>
		<rect y="30.69" class="st2" width="22.242" height="1.492"/>
		<rect y="35.511" class="st2" width="22.242" height="1.493"/>
		<rect y="40.332" class="st2" width="22.242" height="1.493"/>
		<rect y="45.153" class="st2" width="22.242" height="1.493"/>
		<circle class="st2" cx="90.098" cy="1.75" r="1.102"/>
		<circle class="st2" cx="95.314" cy="1.75" r="1.102"/>
		<circle class="st2" cx="100.53" cy="1.75" r="1.102"/>
		<circle class="st2" cx="105.746" cy="1.75" r="1.102"/>
		<circle class="st2" cx="110.962" cy="1.75" r="1.102"/>
		<circle class="st2" cx="116.178" cy="1.75" r="1.102"/>
		<circle class="st2" cx="92.706" cy="5.61" r="1.102"/>
		<circle class="st2" cx="97.922" cy="5.61" r="1.102"/>
		<circle class="st2" cx="103.138" cy="5.61" r="1.102"/>
		<circle class="st2" cx="108.354" cy="5.61" r="1.102"/>
		<circle class="st2" cx="113.57" cy="5.61" r="1.102"/>
		<circle class="st2" cx="90.098" cy="9.47" r="1.102"/>
		<circle class="st2" cx="95.314" cy="9.47" r="1.102"/>
		<circle class="st2" cx="100.53" cy="9.47" r="1.102"/>
		<circle class="st2" cx="105.746" cy="9.47" r="1.102"/>
		<circle class="st2" cx="110.962" cy="9.47" r="1.102"/>
		<circle class="st2" cx="116.178" cy="9.47" r="1.102"/>
		<circle class="st2" cx="92.706" cy="13.33" r="1.102"/>
		<circle class="st2" cx="97.922" cy="13.33" r="1.102"/>
		<circle class="st2" cx="103.138" cy="13.33" r="1.102"/>
		<circle class="st2" cx="108.354" cy="13.33" r="1.102"/>
		<circle class="st2" cx="113.57" cy="13.33" r="1.102"/>
		<circle class="st2" cx="90.098" cy="17.19" r="1.102"/>
		<circle class="st2" cx="95.314" cy="17.19" r="1.102"/>
		<circle class="st2" cx="100.53" cy="17.19" r="1.102"/>
		<circle class="st2" cx="105.746" cy="17.19" r="1.102"/>
		<circle class="st2" cx="110.962" cy="17.19" r="1.102"/>
		<circle class="st2" cx="116.178" cy="17.19" r="1.102"/>
		<rect x="58.027" y="21.047" class="st2" width="28.215" height="1.493"/>
		<rect x="58.027" y="25.868" class="st2" width="28.215" height="1.493"/>
		<rect x="58.027" y="30.69" class="st2" width="28.215" height="1.493"/>
		<rect x="58.027" y="35.511" class="st2" width="28.215" height="1.492"/>
		<rect x="58.027" y="40.332" class="st2" width="28.215" height="1.493"/>
		<rect x="58.027" y="45.153" class="st2" width="28.215" height="1.493"/>
	</g>
	<g>
		<rect x="122.027" y="77.047" class="st2" width="5.973" height="1.493"/>
		<rect x="122.027" y="81.868" class="st2" width="5.973" height="1.493"/>
		<rect x="122.027" y="86.69" class="st2" width="5.973" height="1.492"/>
		<rect x="122.027" y="91.511" class="st2" width="5.973" height="1.492"/>
		<rect x="122.027" y="96.332" class="st2" width="5.973" height="1.493"/>
		<rect x="122.027" y="101.153" class="st2" width="5.973" height="1.493"/>
		<rect x="122.027" y="21.047" class="st2" width="5.973" height="1.493"/>
		<rect x="122.027" y="25.868" class="st2" width="5.973" height="1.493"/>
		<rect x="122.027" y="30.69" class="st2" width="5.973" height="1.492"/>
		<rect x="122.027" y="35.511" class="st2" width="5.973" height="1.493"/>
		<rect x="122.027" y="40.332" class="st2" width="5.973" height="1.493"/>
		<rect x="122.027" y="45.153" class="st2" width="5.973" height="1.493"/>
	</g>
	<path class="st1" d="M0,83.316c7.914,0,14.33,6.421,14.33,14.342S7.914,112,0,112V83.316z"/>
</g>
</svg>
