<svg width="32" height="32" viewBox="0 0 32 32" fill="none" xmlns="http://www.w3.org/2000/svg">
<g clip-path="url(#clip0)">
<path d="M3.88671 3.88613C1.29984 6.47113 -0.0029119 9.8832 -0.000974405 13.2709C-0.0029119 16.6596 1.29984 20.0707 3.88671 22.6557C6.47171 25.2426 9.88377 26.5463 13.2705 26.5424C15.6367 26.5453 18.0059 25.8949 20.1055 24.6332L26.5322 31.06C27.7832 32.311 29.8105 32.311 31.0615 31.06C32.3125 29.81 32.3125 27.7817 31.0615 26.5317L24.6338 20.1039C25.8965 18.0053 26.5459 15.6352 26.543 13.2709C26.5459 9.88326 25.2432 6.47113 22.6562 3.88619C20.0713 1.30026 16.6601 -0.00343004 13.2705 -0.000555038C9.88378 -0.00449254 6.47171 1.30019 3.88671 3.88613ZM19.0332 7.5102C20.6289 9.10688 21.416 11.1772 21.42 13.2709C21.416 15.3647 20.629 17.434 19.0332 19.0327C17.4346 20.6284 15.3652 21.4155 13.2705 21.4194C11.1778 21.4155 9.10746 20.6284 7.50978 19.0327C5.91409 17.4341 5.12696 15.3647 5.12303 13.2709C5.12696 11.1772 5.91403 9.10688 7.50978 7.50919C9.10746 5.91351 11.1778 5.12638 13.2705 5.12244C15.3653 5.12638 17.4346 5.91351 19.0332 7.5102Z" fill="#4B4B4B"/>
</g>
<defs>
<clipPath id="clip0">
<rect width="32" height="32" fill="white" transform="translate(0 32) rotate(-90)"/>
</clipPath>
</defs>
</svg>
